<?xml version="1.0" encoding="UTF-8"?> <svg xmlns="http://www.w3.org/2000/svg" width="80" height="81" viewBox="0 0 80 81" fill="none"><g clip-path="url(#clip0_1756_683)"><path d="M79.9917 76.7093C79.9917 77.6992 79.9792 78.6891 79.9917 79.6769C79.9917 79.9499 79.9437 80.0436 79.6707 79.9936C79.5411 79.9821 79.4107 79.9821 79.281 79.9936H0V75.9279H2.57157C2.57157 76.03 2.59033 76.1363 2.59241 76.2384C2.61742 77.3845 2.61741 77.3845 3.77399 77.3845H19.0763C20.5726 77.3845 20.5726 77.3845 20.6601 75.9258H23.2025C23.2065 76.1567 23.2253 76.3871 23.2587 76.6156C23.3108 76.8802 23.0504 77.3491 23.5463 77.3512C23.9985 77.3512 24.5883 77.6909 24.8925 77.0178C26.4208 77.0178 27.949 77.0178 29.4772 77.0178C29.9377 77.0178 30.4087 76.9532 30.8484 77.1699C31.0318 77.5054 31.3527 77.3783 31.6153 77.3783C37.2433 77.4005 42.8699 77.4151 48.4951 77.422C48.716 77.422 48.9599 77.5054 49.2016 77.2908L48.1305 76.6948C48.3534 76.1717 48.8286 76.2467 49.2516 76.2425C51.1417 76.2259 53.0339 76.2217 54.9261 76.2134C54.9971 76.4039 55.0468 76.6017 55.0741 76.8031C55.1012 77.6929 55.7514 77.4491 56.2682 77.495C56.9392 77.5533 56.685 77.0094 56.8079 76.7114H59.3358C59.3066 77.222 59.5004 77.4074 60.0526 77.4012C62.8013 77.3699 65.548 77.3866 68.2967 77.3866C69.6408 77.3866 69.6408 77.3866 69.7116 76.0862H72.2124C72.2368 76.2139 72.2459 76.344 72.2394 76.4738C72.1123 77.2428 72.4478 77.445 73.1876 77.4054C74.3546 77.3429 75.53 77.3616 76.6991 77.4054C77.2367 77.4241 77.4743 77.2512 77.4326 76.7156L79.9917 76.7093Z" fill="#9D30FE"></path><path d="M0 61.8676C2.39027 61.8801 4.78262 61.8842 7.17289 61.9155C7.65011 61.9155 7.7168 61.7071 7.72513 61.2903C7.75222 60.0733 7.62302 58.8521 7.7939 57.6372H10.2946C10.2946 58.8334 10.3321 60.0296 10.3134 61.2257C10.3134 61.7071 10.4072 61.9218 10.949 61.9051C12.2493 61.8704 13.5497 61.8704 14.8501 61.9051C15.394 61.9197 15.5065 61.6967 15.4878 61.2236C15.4607 60.5985 15.4982 59.9733 15.5065 59.3481H18.0489C18.0614 59.6586 18.0864 59.9733 18.0864 60.2817C18.0864 61.8884 18.0864 61.8884 19.7348 61.8884C20.7226 61.8884 21.7104 61.9009 22.6982 61.8884C23.0837 61.8884 23.2692 61.9864 23.2546 62.4136C23.2192 63.5806 23.2171 64.7476 23.2004 65.9167H20.6622C20.6622 65.8145 20.6372 65.7083 20.6351 65.6062C20.6101 64.5079 20.6101 64.5079 19.5098 64.5079H4.36375C2.66326 64.5079 2.66326 64.5079 2.59449 66.2313C2.59449 66.2834 2.58199 66.3355 2.57574 66.3855H0V61.8676Z" fill="#824DF5"></path><path d="M10.2817 28.1206C10.4901 28.6562 10.961 28.3769 11.2965 28.3853C12.9137 28.4186 12.9137 28.3998 12.9157 29.992C12.9157 30.9798 12.9345 31.9675 12.9053 32.9532C12.8907 33.4305 13.0554 33.5784 13.5305 33.5784C14.7809 33.5513 16.0312 33.6034 17.2712 33.5555C17.9213 33.5284 18.1693 33.7326 18.0797 34.3891C18.0297 34.7475 18.038 35.1122 18.0193 35.4748H-0.00878906V33.5993C1.49581 33.5993 3.00041 33.5638 4.505 33.5868C5.01557 33.5868 5.17395 33.443 5.15936 32.9303C5.12393 31.68 5.18853 30.4296 5.13018 29.1938C5.09892 28.5145 5.33858 28.329 5.96375 28.4019C6.38054 28.4478 6.79733 28.4019 7.21411 28.4019C7.46002 28.4019 7.68716 28.4019 7.79136 28.1227L10.2817 28.1206ZM9.0709 30.9506C7.71217 30.9506 7.70592 30.9506 7.71217 32.1488C7.72259 33.7618 7.55588 33.5534 8.77706 33.5638C10.3087 33.5742 10.3088 33.5638 10.3088 32.5594C10.3171 30.9506 10.3171 30.9506 9.07923 30.9506H9.0709Z" fill="#477EE4"></path><path d="M0.000132841 35.4644H18.0282C18.1199 37.2859 18.1199 39.111 18.0282 40.9326H-0.00195312L0.000132841 35.4644ZM9.1465 36.1041H4.31595C2.46542 36.1041 2.49668 36.1041 2.56336 37.9505C2.58629 38.6215 2.83636 38.7382 3.44696 38.734C6.82292 38.7028 10.1989 38.7195 13.5769 38.7195C15.5171 38.7195 15.4983 38.7195 15.4879 36.7543C15.4879 36.25 15.3524 36.0854 14.8356 36.0937C12.9393 36.1229 11.0429 36.1041 9.1465 36.1041Z" fill="#5374E7"></path><path d="M67.1293 49.2078C66.9939 48.4347 67.1043 47.6532 67.0668 46.8759C67.0501 46.5404 67.1981 46.4299 67.5274 46.4174C68.2192 46.3862 69.1028 46.7196 69.5488 46.2716C69.9656 45.8548 69.655 44.9858 69.6675 44.3168C69.6675 43.9646 69.8218 43.8521 70.1385 43.8834H70.2177C72.1912 43.7896 72.212 43.7896 72.2162 45.7443C72.2162 46.3028 72.4017 46.4362 72.9331 46.4362C74.8336 46.4362 74.8336 46.4529 74.8336 44.5398C74.8336 43.6312 74.8482 42.7205 74.8336 41.8099C74.8336 41.4202 74.9357 41.2764 75.3546 41.2576C77.4385 41.1576 77.4385 41.143 77.4385 43.2311C77.4385 44.1147 77.4531 44.9983 77.4385 45.8819C77.4281 46.282 77.5615 46.4466 77.9741 46.4278C78.6472 46.3987 79.3245 46.407 79.9997 46.4008V49.212H77.4198C77.2781 49.0036 77.0592 49.0411 76.8571 49.0411C74.6342 49.0411 72.4156 49.0411 70.201 49.0411C70.0052 49.0411 69.7842 48.9786 69.6467 49.212L67.1293 49.2078Z" fill="#5E6BEB"></path><path d="M0.000259321 40.9326H18.0304C18.0721 41.0681 18.07 41.2098 17.9137 41.2431C17.7346 41.2713 17.5531 41.2818 17.3719 41.2744C15.4755 41.2952 15.4755 41.2952 15.4755 43.1603C15.4755 43.9627 15.4193 44.7733 15.4922 45.5694C15.563 46.3279 15.2546 46.4717 14.5794 46.4425C13.4395 46.3925 12.2871 46.4738 11.1576 46.4134C10.4658 46.3758 10.2032 46.5801 10.3095 47.2699C10.325 47.5019 10.3187 47.735 10.2907 47.9659H7.78999C7.68996 46.4279 7.68996 46.4279 6.13743 46.4279C5.23092 46.4279 4.32233 46.3904 3.4179 46.4404C2.79272 46.4759 2.55099 46.3092 2.58433 45.6381C2.63851 44.4232 2.56558 43.202 2.61142 41.9871C2.63435 41.3848 2.43012 41.2223 1.85912 41.2619C1.23394 41.3056 0.608769 41.2619 -0.00390625 41.2494L0.000259321 40.9326ZM9.05702 41.2702H7.10438C5.10172 41.2702 5.12672 41.2702 5.14131 43.2687C5.14131 43.8272 5.36638 43.8939 5.83318 43.8939C7.55034 43.873 9.26958 43.8939 10.9867 43.8939C13.0269 43.8939 13.0123 43.8939 12.9352 41.837C12.9185 41.3807 12.7622 41.264 12.335 41.2723C11.2431 41.2848 10.149 41.2702 9.05702 41.2702Z" fill="#5E6BEB"></path><path d="M36.1458 8.43363C36.1354 7.50003 36.1354 6.55809 36.1062 5.63491C36.0937 5.25564 36.2375 5.10976 36.6022 5.15352C36.6541 5.15977 36.7066 5.15977 36.7585 5.15352C37.3837 5.09101 38.2589 5.44944 38.6028 4.99514C38.9195 4.57836 38.7091 3.74479 38.7195 3.11961C38.7341 2.07764 38.7382 1.03568 38.7466 0.00830078H41.2473C41.2473 1.5129 41.2869 3.0175 41.2619 4.52209C41.2619 5.03682 41.4077 5.1827 41.9183 5.17853C42.5539 5.17853 43.4208 4.86802 43.7647 5.32024C44.0835 5.73702 43.8814 6.57059 43.8793 7.20619C43.8793 8.81498 43.8584 10.4238 43.8459 12.0326H41.3098C41.2973 11.2282 41.2764 10.4217 41.2744 9.61522C41.2744 7.73968 41.2744 7.75635 39.3988 7.73968C38.8403 7.73968 38.6569 7.93348 38.6778 8.43779L36.1458 8.43363Z" fill="#17A6D6"></path><path d="M79.9916 58.1187V68.4299H77.418V58.1187H79.9916Z" fill="#824DF5"></path><path d="M2.57157 75.9301H0V70.9287H2.57157V75.9301Z" fill="#9639FB"></path><path d="M79.9916 58.1186H77.418V53.2734H79.9916V58.1186Z" fill="#7358F1"></path><path d="M2.57157 70.9284H0V66.3979H2.57157V70.9284Z" fill="#8B43F8"></path><path d="M77.418 68.4302H79.9916V72.648H77.418V68.4302Z" fill="#8B43F8"></path><path d="M77.418 72.6479H79.9916V76.7095H77.418V72.6479Z" fill="#9639FB"></path><path d="M79.9916 53.2735H77.418C77.418 51.9189 77.418 50.5651 77.418 49.2119H79.9895L79.9916 53.2735Z" fill="#695FEE"></path><path d="M41.3097 12.0262H43.8437C43.775 12.7577 44.0751 12.9702 44.8232 12.9452C46.8259 12.8827 48.8306 12.8973 50.8333 12.9452C51.4584 12.9577 51.6126 12.7473 51.6043 12.1492C51.5772 10.3299 51.6043 10.2903 53.3944 10.3424C54.0613 10.3632 54.278 10.1444 54.228 9.53801H56.7141C56.6453 10.2195 56.9767 10.3966 57.6123 10.3362C58.1471 10.3112 58.6828 10.3174 59.2169 10.3549L59.3273 10.4695V18.9074H56.7912C56.7787 17.532 56.7579 16.1566 56.7516 14.7812C56.7516 12.8702 56.7516 12.8869 54.8115 12.9181C54.3447 12.9181 54.1863 13.0432 54.1863 13.5287C54.2071 14.9041 54.1863 16.2816 54.1675 17.657C52.5004 17.6174 50.8457 17.7862 49.1953 17.4986L50.4456 15.4772C48.5055 15.4772 46.6716 15.5189 44.844 15.4564C44.0813 15.4314 43.7375 15.6231 43.8479 16.4066H36.1374C35.9436 16.1232 36.4187 15.5022 35.756 15.4918C33.7179 15.4564 31.6778 15.4793 29.5042 15.4793L31.0943 17.9508C31.0556 18.0016 31.0067 18.0437 30.9507 18.0742C30.8946 18.1047 30.8328 18.123 30.7692 18.128C29.127 18.4406 27.4682 18.2197 25.8198 18.2822C25.8094 16.6734 25.7927 15.0646 25.7927 13.4558C25.7927 13.1265 25.7406 12.8515 25.3384 12.9369C24.6466 13.0849 23.8589 12.5618 23.2545 13.2266C23.1753 13.312 23.2378 13.5287 23.2358 13.6829C23.2233 14.279 23.2087 14.875 23.1962 15.471H20.6621C20.6621 13.8038 20.6621 12.1367 20.6621 10.4695L20.7726 10.357C21.6061 10.1882 22.4647 10.5425 23.2733 10.1653H25.7573C26.4158 10.5237 27.1202 10.2861 27.8017 10.3091C28.2851 10.3257 28.4435 10.4716 28.406 10.9342C28.3706 11.351 28.4289 11.7678 28.3893 12.1846C28.3372 12.7389 28.4873 12.9619 29.1041 12.9494C31.2047 12.9098 33.3074 12.9181 35.4101 12.9494C35.9415 12.9494 36.1332 12.8223 36.1207 12.2617C36.0894 10.9926 36.1207 9.72139 36.1415 8.4502H38.686C38.6964 10.1674 38.7152 11.8845 38.7194 13.6017C38.7194 15.5585 38.7194 15.5439 40.7012 15.498C41.1325 15.4876 41.2909 15.3793 41.2805 14.9271C41.2618 13.9518 41.2972 12.989 41.3097 12.0262Z" fill="#259ADA"></path><path d="M18.0445 59.3672H15.5021C15.5021 57.8876 15.5021 56.4059 15.4604 54.9263C15.4416 54.3449 15.6063 54.1845 16.1939 54.1865C20.4035 54.2136 24.6151 54.1865 28.8246 54.222C29.6978 54.222 30.2646 54.0865 30.3292 53.1175C30.4988 53.1691 30.6735 53.202 30.8502 53.2154C31.6296 53.1988 32.4736 53.5947 33.1425 52.8799L39.3943 55.7182C39.6965 55.8558 39.9716 56.0204 40.3467 55.8433C42.5557 54.8013 44.7771 53.7823 46.9923 52.7549C47.8447 53.1883 48.7449 52.8799 49.6223 52.932C49.9661 54.2011 49.9661 54.2011 51.2894 54.2011C55.4573 54.2011 59.6251 54.2011 63.793 54.1886C64.3661 54.1886 64.5557 54.3199 64.5369 54.918C64.4848 56.4518 64.5036 57.9876 64.4932 59.5235H61.9487C61.9341 58.8504 61.8737 58.171 61.9216 57.5021C61.9695 56.8331 61.7132 56.7268 61.1235 56.731C57.9017 56.756 54.68 56.7664 51.4582 56.731C50.7101 56.7206 50.46 56.9248 50.6872 57.6396L48.1281 57.6542C47.976 57.0561 47.8176 56.458 47.6738 55.8558C47.6154 55.6182 47.5883 55.364 47.2403 55.5244L43.1246 57.4L45.7566 58.6503C45.5145 58.7968 45.2391 58.8793 44.9563 58.89C43.929 58.89 42.9016 58.89 41.8763 58.89C41.4595 58.89 41.0427 58.8504 40.6843 59.0984C40.0591 58.6816 39.5006 59.0629 38.9171 59.2088C38.6384 59.0684 38.3251 59.0113 38.0148 59.0442C37.0541 59.0442 36.0955 59.0442 35.1369 59.0442C34.7951 59.0442 34.4325 59.0838 34.3721 58.6003L36.8728 57.3875C35.4619 56.7435 34.1637 56.1621 32.8716 55.5557C32.4944 55.3786 32.3819 55.4869 32.3048 55.8641C32.1631 56.5747 31.9714 57.277 31.8005 57.9814L29.2247 57.9522C29.2623 57.7438 29.2914 57.5354 29.3394 57.3437C29.4394 56.9269 29.3644 56.7185 28.8642 56.7185C25.4521 56.7352 22.0414 56.7352 18.6321 56.7185C18.1653 56.7185 18.0611 56.9082 18.0695 57.3229C18.0903 58.0168 18.057 58.692 18.0445 59.3672Z" fill="#7358F1"></path><path d="M23.2749 34.9954C23.2645 32.7031 23.2624 30.4253 23.2354 28.1414C23.2354 27.4662 23.5521 27.7413 23.8439 27.8892C26.8385 29.3834 29.8372 30.8692 32.8194 32.3863C33.4029 32.6843 33.6112 32.6739 33.5758 31.9383C33.5321 31.0339 33.5758 30.1232 33.5946 29.2146C34.9429 29.2146 36.3037 29.2146 37.6416 29.2146C37.9125 29.2146 38.2209 29.3209 38.4397 29.0437C39.7276 30.1607 40.807 31.4944 42.1345 32.5739C42.3596 32.7573 42.4638 32.8865 42.7284 32.5739C43.5328 31.6153 44.1372 30.6171 43.8892 29.2896C43.8668 29.0062 43.8745 28.7212 43.9121 28.4394H46.3982C46.3628 29.0833 46.5045 29.2396 47.2068 28.9708C51.2079 27.4328 56.0739 29.0395 58.212 33.1032C57.2597 33.4137 56.2782 33.2387 55.3112 33.2824L54.859 32.8656C52.9001 31.0422 50.6495 30.4941 48.1112 31.386C45.994 32.13 44.7373 33.7075 44.0434 35.7852H41.4677C41.4268 35.5533 41.2985 35.3459 41.1092 35.2059C40.3361 34.4369 39.5713 33.6617 38.794 32.899C37.9396 32.0654 37.0747 31.2318 36.0849 30.2545V35.1621C35.4472 35.1621 34.8074 35.1621 34.1697 35.1621C33.8509 35.1621 33.5446 35.1621 33.4133 35.5331C33.1799 35.4247 32.9402 35.3247 32.711 35.2101C30.6458 34.1827 28.5723 33.1761 26.528 32.1133C25.8611 31.7674 25.759 31.9508 25.7861 32.5989C25.8173 33.3991 25.7757 34.2035 25.7673 35.0079L23.2749 34.9954Z" fill="#477EE4"></path><path d="M33.5869 48.8995C33.5869 46.874 33.5514 44.8484 33.5743 42.8249C33.5743 42.1997 33.4201 42.1309 32.8908 42.4081C29.9295 43.9085 26.96 45.3902 23.9924 46.876C23.2485 47.2491 23.2422 47.2449 23.2443 46.3905C23.2526 44.3649 23.2631 42.34 23.2756 40.3158H25.7638C25.7638 40.9889 25.8138 41.662 25.7825 42.3331C25.7554 42.927 25.8888 43.0624 26.4556 42.7707C28.1353 41.91 29.8379 41.091 31.53 40.2554C31.8384 40.5888 32.2427 40.6284 32.6616 40.6284H36.0813V44.5879L39.7469 41.0452L44.4483 41.0869C44.525 41.0959 44.6028 41.0842 44.6735 41.0531C44.7442 41.0219 44.8053 40.9724 44.8505 40.9097C45.534 41.7621 46.2551 42.5769 47.2491 43.0812C49.8332 44.3899 52.2505 44.0231 54.5429 42.3393C55.5848 42.604 56.6643 42.4414 57.7229 42.5144C55.5932 45.8174 51.169 47.2907 47.4116 45.9487C47.0949 45.8361 46.774 45.7403 46.4551 45.6361L43.9211 45.6194C44.0211 44.4149 43.7689 43.3604 42.8791 42.4456C42.5186 42.0726 42.4019 41.9892 42.0268 42.3727C40.2096 44.2232 38.3757 46.057 36.5252 47.8742C36.3816 48.0022 36.2685 48.1608 36.1942 48.3382C36.1199 48.5156 36.0863 48.7074 36.0959 48.8995H33.5869Z" fill="#5E6BEB"></path><path d="M61.9485 59.5234H64.4888C64.4888 60.1486 64.5305 60.7738 64.5118 61.3844C64.4972 61.8012 64.6597 61.8991 65.0515 61.9158C67.0667 62.0075 67.0625 62.0179 67.0687 59.9798C67.0687 59.5172 67.1083 59.0546 67.1292 58.5898H69.6487C69.6487 59.5214 69.6841 60.4529 69.6695 61.3844C69.6695 61.8012 69.807 61.9345 70.2071 61.9137C70.6989 61.8908 71.1908 61.9137 71.6826 61.9137C72.0743 61.897 72.2431 62.0325 72.2348 62.4451C72.2098 63.8163 72.2098 65.1876 72.1994 66.5609H69.6987C69.6987 66.042 69.6612 65.5189 69.6778 65.0063C69.6924 64.6291 69.5445 64.5207 69.1819 64.5207C66.0712 64.5304 62.9592 64.5304 59.8459 64.5207C59.4791 64.5207 59.3457 64.6374 59.3519 65.0104C59.3645 65.7877 59.3374 66.565 59.3269 67.3424H56.795C56.7804 65.7586 56.795 64.1748 56.7345 62.591C56.7158 62.02 56.9283 61.8908 57.4535 61.9054C58.5705 61.9408 59.6875 61.922 60.8065 61.9054C62.0569 61.9054 61.8881 62.0554 61.9089 60.7675C61.9152 60.3528 61.9339 59.9381 61.9485 59.5234Z" fill="#824DF5"></path><path d="M33.5867 48.8993H36.0875C36.1771 48.943 36.2646 49.0264 36.3563 49.0264C38.7174 49.0264 41.0785 49.0264 43.4416 49.0451C43.8584 49.0451 43.8876 48.818 43.8876 48.4991C43.8876 47.5384 43.9043 46.5798 43.9147 45.6191L46.4488 45.6358C46.4488 46.5715 46.4488 47.5114 46.4237 48.445C46.4237 48.8617 46.5134 49.0514 46.9822 49.0514C47.5678 49.0514 48.3326 48.7701 48.6973 49.1868C49.062 49.6036 49.0662 50.3455 49.2058 50.9498C49.36 51.6063 49.4892 52.2711 49.6226 52.9317C48.7453 52.8796 47.845 53.188 46.9927 52.7545C46.6634 51.5855 46.6634 51.5854 45.4068 51.5854H34.1077C33.2116 51.5854 32.9657 51.9189 33.1512 52.8775C32.4739 53.5923 31.6299 53.1963 30.8589 53.213C30.6821 53.1996 30.5074 53.1667 30.3379 53.1151C30.5942 51.9335 30.8651 50.7519 31.0964 49.5724C31.1777 49.1556 31.3736 49.0472 31.7758 49.0326C32.3718 49.0035 32.997 49.1952 33.5867 48.8993Z" fill="#695FEE"></path><path d="M56.791 18.901H59.3293C59.3293 20.1764 59.3293 21.4497 59.3668 22.7229C59.3772 23.1397 59.2209 23.2585 58.8229 23.2544C56.6097 23.2419 54.3987 23.2356 52.1876 23.2544C51.6917 23.2544 51.5624 23.0814 51.5791 22.6292C51.6177 21.3445 51.5718 20.0588 51.4416 18.7802C50.2912 20.4473 49.1416 22.1214 47.9927 23.8024C47.8093 23.3627 47.4154 23.4836 47.0695 23.4315C46.5131 23.3481 45.8858 23.7003 45.4023 23.1689C46.6041 21.2378 47.869 19.3477 49.1972 17.4985C50.8477 17.7861 52.5106 17.6173 54.1694 17.6569C54.1694 18.4634 54.1861 19.2678 54.207 20.0743C54.207 20.2639 54.1132 20.5827 54.382 20.5994C55.1072 20.6453 55.8783 20.7599 56.5493 20.564C57.0119 20.4306 56.6556 19.7304 56.7452 19.2928C56.7702 19.1615 56.7764 19.0302 56.791 18.901Z" fill="#3793DE"></path><path d="M45.4024 23.1631C45.8858 23.6945 46.5131 23.3423 47.0695 23.4257C47.4154 23.4777 47.8093 23.3569 47.9927 23.7966C47.9588 23.8924 47.9141 23.984 47.8593 24.0696C46.8174 25.3387 46.1463 26.7308 46.4006 28.4333H43.9124C43.8841 28.2542 43.8764 28.0724 43.8894 27.8915C44.0145 27.1663 43.681 27.0142 43.0184 27.058C42.1848 27.1121 41.3512 27.0705 40.5176 27.0705H36.7478L38.4504 29.0418C38.242 29.319 37.9231 29.2106 37.6522 29.2127C36.3039 29.2231 34.9535 29.2127 33.6052 29.2127C33.5771 28.8258 33.5688 28.4377 33.5802 28.0499C33.6615 26.9454 33.5802 25.893 32.8154 25.0011C33.0926 24.6531 33.4865 24.7135 33.8574 24.6718C34.3971 24.6135 34.9785 24.8907 35.4787 24.4905C37.871 24.501 40.2717 24.4405 42.6516 24.5489C43.904 24.6072 44.8751 24.4051 45.4024 23.1631Z" fill="#3C86E1"></path><path d="M57.7142 42.5144C56.6556 42.4415 55.5824 42.604 54.5342 42.3394C55.224 41.6017 55.9012 40.8515 56.2659 39.8824C57.1599 37.5047 56.7952 35.3103 55.3115 33.2764C56.2784 33.2326 57.26 33.4077 58.2123 33.0972C59.9065 36.3356 59.7544 39.474 57.7142 42.5144Z" fill="#5374E7"></path><path d="M69.6496 58.5878H67.1301C67.0269 56.8708 67.0269 55.1491 67.1301 53.4321H69.6475C69.6475 55.1507 69.6482 56.8692 69.6496 58.5878Z" fill="#7358F1"></path><path d="M69.6469 53.4298H67.1295C67.0284 52.0229 67.0284 50.6105 67.1295 49.2036H69.6469V53.4298Z" fill="#695FEE"></path><path d="M56.716 9.53003H54.2299C54.2299 8.22966 54.2299 6.92721 54.1924 5.62892C54.1924 5.24339 54.3362 5.1642 54.6925 5.14544C56.7514 5.04333 56.7556 5.03291 56.7494 7.11267C56.7535 7.91915 56.7285 8.72355 56.716 9.53003Z" fill="#17A6D6"></path><path d="M59.3292 10.472L59.2188 10.3574C59.3125 10.3303 59.35 10.3657 59.3292 10.472Z" fill="#3793DE"></path><path d="M35.4773 24.4923C34.9772 24.8924 34.3957 24.6152 33.856 24.6736C33.4767 24.7153 33.0829 24.6548 32.814 25.0028L28.5795 18.7781L28.4128 18.8031C28.4128 20.0035 28.369 21.2059 28.4294 22.4042C28.4649 23.1023 28.2502 23.2794 27.5646 23.2627C25.4598 23.2169 23.353 23.2398 21.2482 23.2627C20.8544 23.2627 20.623 23.2148 20.623 22.7251C20.6543 20.3077 20.6522 17.8904 20.6626 15.4751H23.203C23.2175 16.5671 23.2405 17.6591 23.2446 18.749C23.2446 20.7766 23.2446 20.7662 25.3015 20.6495C25.6662 20.6287 25.8058 20.5307 25.7974 20.1556C25.7829 19.5304 25.812 18.9052 25.8245 18.2801C27.4729 18.2176 29.1317 18.4384 30.7739 18.1259C30.8375 18.1209 30.8993 18.1026 30.9554 18.0721C31.0114 18.0416 31.0603 17.9995 31.099 17.9487C31.2532 18.1571 31.4178 18.353 31.5616 18.5739C32.8689 20.5425 34.1742 22.5153 35.4773 24.4923Z" fill="#3793DE"></path><path d="M25.7636 40.3075H23.2754V34.9956H25.7636V40.3075Z" fill="#5374E7"></path><path d="M25.7619 10.1528H23.2779C23.2654 8.64402 23.257 7.13526 23.2383 5.62649C23.2383 5.32224 23.3008 5.17845 23.6551 5.14302C25.7911 4.93463 25.7911 4.92421 25.7869 7.03106C25.789 8.07302 25.7723 9.11291 25.7619 10.1528Z" fill="#17A6D6"></path><path d="M7.7959 47.9614H10.2966V52.9629H7.7959V47.9614Z" fill="#695FEE"></path><path d="M10.2824 28.1207H7.78165C7.77192 26.6675 7.76081 25.2151 7.7483 23.7632C7.7483 23.6861 7.72121 23.5778 7.7608 23.5361C8.38598 22.8817 9.15912 23.3986 9.84474 23.2506C10.2407 23.1652 10.3074 23.4277 10.3032 23.7612C10.3032 25.2157 10.299 26.6682 10.2824 28.1207Z" fill="#3C86E1"></path><path d="M7.79596 52.9629H10.2967V57.6517H7.79596C7.79457 56.086 7.79457 54.5231 7.79596 52.9629Z" fill="#7358F1"></path><path d="M20.775 10.3467L20.6646 10.4593C20.6416 10.3655 20.6812 10.3301 20.775 10.3467Z" fill="#3793DE"></path><path d="M48.1222 76.6972C45.4923 75.5572 42.8728 74.4048 40.3096 73.1149C40.4784 72.7481 40.8118 72.8044 41.1202 72.8044C42.0309 72.8044 42.9416 72.8044 43.8523 72.8044C44.294 72.8044 44.74 72.8377 45.1318 72.5668L52.1505 75.7323C51.8274 74.1694 51.5253 72.7085 51.2252 71.2456H53.7613C54.2698 72.8773 54.4865 74.5799 54.9158 76.2262C53.0257 76.2262 51.1335 76.2387 49.2434 76.2554C48.8203 76.2491 48.3452 76.1741 48.1222 76.6972Z" fill="#9639FB"></path><path d="M39.6843 73.1187L30.8338 77.1762C30.3941 76.9678 29.9231 77.024 29.4626 77.024C27.9344 77.024 26.4061 77.024 24.8779 77.024C25.1266 75.9807 25.3732 74.9387 25.6177 73.8981L28.1685 73.9106C28.0601 74.5004 27.9496 75.0881 27.8267 75.7487L34.8725 72.5728C35.1878 72.7553 35.5512 72.8375 35.9144 72.8082C36.9022 72.8082 37.89 72.8082 38.8778 72.8082C39.1862 72.8041 39.5175 72.7499 39.6843 73.1187Z" fill="#9639FB"></path><path d="M23.2023 71.2453C23.2856 72.8064 23.2856 74.3709 23.2023 75.932H20.6641V71.2432L23.2023 71.2453Z" fill="#9639FB"></path><path d="M69.7031 76.0866C69.7031 74.7321 69.7031 73.3775 69.7031 72.0229H72.2038C72.2038 73.3761 72.2038 74.7286 72.2038 76.0804L69.7031 76.0866Z" fill="#9639FB"></path><path d="M59.3291 73.1167C59.3291 74.3157 59.3291 75.5139 59.3291 76.7115H56.7992C56.718 75.5146 56.718 74.3136 56.7992 73.1167H59.3291Z" fill="#9639FB"></path><path d="M23.2023 71.2452H20.6641C20.6641 69.4738 20.6641 67.7025 20.6641 65.9312H23.2023C23.2731 67.7004 23.2773 69.4717 23.2023 71.2452Z" fill="#8B43F8"></path><path d="M43.848 16.4004C43.9772 18.0842 43.9772 18.0842 42.3308 18.0842C40.5408 18.0842 38.7507 18.0529 36.9627 18.0988C36.2937 18.1175 35.9832 17.9613 36.102 17.2506C36.1334 16.9683 36.148 16.6844 36.1457 16.4004H43.848Z" fill="#3793DE"></path><path d="M38.9171 59.2189C37.1082 60.215 35.2015 61.0111 33.3363 61.8884C32.9196 62.0968 32.5028 62.3719 32.0589 62.4615C30.4063 62.7907 30.4334 64.1703 30.1604 65.379C30.0896 65.6978 30.3459 65.7603 30.5564 65.8604C31.2566 66.1959 31.9547 66.5356 32.6528 66.8732C32.4257 67.1295 32.1214 67.0253 31.8484 67.0253C30.2938 67.0253 28.7392 67.0253 27.1846 67.0253C27.6785 64.7809 28.1661 62.5344 28.6662 60.2921C28.8413 59.5127 29.0434 58.7396 29.2331 57.9644L31.8088 57.9935L31.4254 59.8982L34.372 58.6104C34.4325 59.0938 34.7888 59.0542 35.1369 59.0542C36.0955 59.0542 37.0541 59.0542 38.0148 59.0542C38.3251 59.0214 38.6384 59.0785 38.9171 59.2189Z" fill="#824DF5"></path><path d="M49.0557 66.0834C49.783 65.8437 49.8351 65.3978 49.7142 64.6684C49.5246 63.5348 49.0224 62.8929 47.9366 62.4386C45.4839 61.4133 43.0978 60.2276 40.6846 59.1043C41.0493 58.8543 41.466 58.8959 41.8766 58.8959C42.9019 58.8959 43.9293 58.8959 44.9566 58.8959C45.2394 58.8853 45.5148 58.8028 45.7568 58.6563L48.5639 59.8816C48.4014 59.0481 48.2638 58.3458 48.1284 57.6435L50.6874 57.6289C51.4001 60.5464 52.0941 63.4493 52.663 66.3814C52.0732 66.3814 51.4835 66.3939 50.8958 66.3814C50.2706 66.3772 49.61 66.5294 49.0557 66.0834Z" fill="#824DF5"></path><path d="M31.5381 40.2467C33.572 39.2423 33.5824 39.2423 33.5637 36.952C33.5637 36.4748 33.7137 35.9705 33.4178 35.5204C33.5533 35.1578 33.8554 35.1453 34.1743 35.1494C34.8119 35.1494 35.4517 35.1494 36.0894 35.1494C35.9602 36.0039 36.3916 36.1581 37.1501 36.1206C38.365 36.058 39.5841 36.1039 40.8032 36.1018C41.0783 36.1018 41.3951 36.1747 41.4763 35.7725H44.0417C43.6916 37.5814 43.8958 39.3027 44.8481 40.9073C44.803 40.97 44.7419 41.0195 44.6712 41.0507C44.6004 41.0818 44.5227 41.0935 44.4459 41.0845L39.7446 41.0428C40.1735 40.4881 40.6628 39.9828 41.2034 39.5361C41.2986 39.4665 41.3691 39.3684 41.4047 39.2559C41.4403 39.1435 41.4391 39.0226 41.4013 38.9109C41.3076 38.6296 41.0616 38.7234 40.8741 38.7213C39.8113 38.7109 38.7485 38.7213 37.6857 38.7213C36.1352 38.7213 36.1352 38.7213 36.1123 40.2342C36.1123 40.3634 36.0936 40.4926 36.0852 40.6218H32.6613C32.2425 40.6198 31.8382 40.5802 31.5381 40.2467Z" fill="#5374E7"></path><path d="M59.3298 73.1165H56.7978C56.7158 71.1896 56.7158 69.2613 56.7978 67.3315H59.3318L59.3298 73.1165Z" fill="#8B43F8"></path><path d="M72.1999 72.0271H69.6992V66.5547H72.1999C72.3216 68.3768 72.3216 70.205 72.1999 72.0271Z" fill="#8B43F8"></path><path d="M16.724 69.6742C15.4736 69.6742 15.4736 69.6741 15.4736 68.3988C15.4736 67.063 15.4736 67.063 16.8282 67.063C18.0785 67.063 18.0785 67.063 18.0785 68.3488C18.0848 69.6741 18.0848 69.6742 16.724 69.6742Z" fill="#8B43F8"></path><path d="M10.3155 68.3654C10.3155 67.063 10.3155 67.063 11.6242 67.063C12.9329 67.063 12.9245 67.063 12.9245 68.3821C12.9245 69.7012 12.9245 69.6742 11.6075 69.6742C10.2905 69.6742 10.3155 69.6741 10.3155 68.3654Z" fill="#8B43F8"></path><path d="M6.38896 69.674C5.15528 69.674 5.15527 69.674 5.15527 68.4632C5.15527 67.0628 5.15528 67.0628 6.52025 67.0628C6.75365 67.0628 6.98913 67.0795 7.22045 67.0628C7.61223 67.0295 7.80395 67.1691 7.76644 67.588C7.7456 67.8172 7.76644 68.0527 7.76644 68.2861C7.76435 69.674 7.76436 69.674 6.38896 69.674Z" fill="#8B43F8"></path><path d="M5.15527 73.5292C5.15527 72.231 5.15528 72.231 6.46607 72.231C7.77686 72.231 7.76227 72.231 7.76227 73.548C7.76227 74.865 7.76227 74.8358 6.44314 74.8358C5.15527 74.8358 5.15527 74.8359 5.15527 73.5292Z" fill="#9639FB"></path><path d="M12.9245 73.5709C12.9245 74.8359 12.9245 74.8359 11.6596 74.8359C10.3154 74.8359 10.3154 74.8359 10.3154 73.5042C10.3154 72.231 10.3154 72.231 11.5658 72.231C12.9245 72.231 12.9245 72.231 12.9245 73.5709Z" fill="#9639FB"></path><path d="M15.4756 73.5377C15.4756 72.229 15.4756 72.229 16.778 72.2311C18.0805 72.2332 18.0847 72.2311 18.0847 73.5398C18.0847 74.8485 18.0847 74.836 16.7739 74.836C15.4631 74.836 15.4756 74.836 15.4756 73.5377Z" fill="#9639FB"></path><path d="M73.532 59.3564C72.2295 59.3564 72.2295 59.3564 72.2295 58.0477C72.2295 56.739 72.2295 56.7432 73.5424 56.7432C74.8553 56.7432 74.8365 56.7432 74.8365 58.0581C74.8365 59.3731 74.8365 59.3564 73.532 59.3564Z" fill="#7358F1"></path><path d="M73.5174 54.2011C72.2295 54.2011 72.2295 54.2011 72.2295 52.8778C72.2295 51.5879 72.2295 51.5879 73.557 51.5879C74.8365 51.5879 74.8365 51.5879 74.8365 52.8382V52.9154C74.8365 54.2011 74.8365 54.2011 73.5174 54.2011Z" fill="#7358F1"></path><path d="M49.0556 66.0835C49.6099 66.5315 50.2705 66.3773 50.8957 66.394C51.4834 66.4107 52.0731 66.394 52.6629 66.394C53.0005 68.0132 53.5423 69.5845 53.7611 71.2308H51.225C51.0166 70.4556 50.7894 69.6845 50.6477 68.8968C50.5456 68.3341 50.381 68.2237 49.8475 68.48C48.5388 69.1052 47.2051 69.7033 45.8734 70.2909C44.9711 70.6869 44.0375 71.0182 43.1998 71.6122L45.1316 72.5499C44.7398 72.8208 44.298 72.7896 43.852 72.7875C42.9414 72.7875 42.0307 72.7875 41.12 72.7875C40.8116 72.7875 40.4782 72.7312 40.3094 73.098H39.6842C39.5175 72.7292 39.1861 72.7833 38.8777 72.7833C37.8899 72.7833 36.9021 72.7833 35.9143 72.7833C35.5514 72.8123 35.1882 72.7309 34.8724 72.5499L36.8667 71.5705C34.5952 70.5285 32.4342 69.5532 30.2794 68.5613C29.4333 68.1716 29.4083 68.1778 29.2478 69.1177C28.9707 70.7244 28.6081 72.3124 28.1767 73.8857L25.626 73.8732C26.0699 71.5642 26.5825 69.2719 27.1889 66.9963C28.7435 66.9963 30.2981 66.9963 31.8528 66.9963C32.1258 66.9963 32.43 67.1005 32.6572 66.8441C34.8807 67.8465 37.1105 68.8322 39.3257 69.8617C39.5381 69.9746 39.775 70.0337 40.0155 70.0337C40.2561 70.0337 40.4929 69.9746 40.7053 69.8617C43.4728 68.5925 46.2673 67.3443 49.0556 66.0835Z" fill="#8B43F8"></path><path d="M64.5211 69.6742C63.8959 69.6742 63.2707 69.6262 62.6455 69.6867C61.9912 69.7513 61.8807 69.4783 61.887 68.8927C61.9099 67.0651 61.887 67.063 63.7041 67.063C64.6398 67.063 65.5797 67.0797 66.507 67.063C66.9238 67.063 67.0906 67.188 67.1135 67.634C67.2156 69.6804 67.2302 69.6804 65.2129 69.6804L64.5211 69.6742Z" fill="#8B43F8"></path><path d="M64.4897 74.8358C63.8166 74.8358 63.1414 74.8108 62.4683 74.8358C62.014 74.8567 61.9098 74.6795 61.8994 74.2523C61.841 72.2205 61.8285 72.2226 63.8228 72.2226C64.7293 72.2226 65.6588 72.0955 66.5319 72.2518C67.7573 72.4601 66.8549 73.5021 67.0842 74.144C67.228 74.542 67.0967 74.8858 66.5048 74.84C65.8421 74.7941 65.1649 74.8358 64.4897 74.8358Z" fill="#9639FB"></path><path d="M51.581 37.4004C51.586 37.5688 51.5575 37.7366 51.4972 37.8939C51.4369 38.0513 51.3459 38.195 51.2296 38.317C51.1133 38.4389 50.974 38.5365 50.8196 38.6042C50.6653 38.6719 50.4991 38.7082 50.3306 38.7112C49.9952 38.7014 49.6766 38.5621 49.4416 38.3225C49.2067 38.0828 49.0736 37.7616 49.0704 37.426C49.0671 37.0904 49.194 36.7666 49.4243 36.5225C49.6546 36.2784 49.9704 36.133 50.3056 36.1167C50.474 36.1159 50.641 36.1486 50.7966 36.2129C50.9523 36.2772 51.0936 36.3719 51.2123 36.4913C51.331 36.6108 51.4247 36.7527 51.488 36.9088C51.5513 37.0649 51.5829 37.232 51.581 37.4004Z" fill="#5374E7"></path></g><defs><clipPath id="clip0_1756_683"><rect width="80" height="80.0083" fill="white"></rect></clipPath></defs></svg> 