<?xml version="1.0" encoding="UTF-8"?> <svg xmlns="http://www.w3.org/2000/svg" width="80" height="80" viewBox="0 0 80 80" fill="none"><g clip-path="url(#clip0_2146_718)"><path d="M26.9434 32.2694L28.2873 31.2073C26.0103 31.6824 24.0665 32.392 22.297 33.5552C22.039 33.7251 21.8197 33.9723 21.4778 33.6133C19.9189 31.9899 17.8527 31.4631 15.7477 31.16C12.6536 30.7149 9.59185 30.889 6.65047 32.0824C6.02693 32.3361 5.39694 32.6156 4.93037 33.0865C4.51324 33.4993 4.07031 33.5681 3.54353 33.5165C2.65675 33.4258 1.82738 33.0356 1.1922 32.4102C0.557019 31.7848 0.153976 30.9615 0.0495598 30.0763C-0.01466 29.7593 0.0183144 29.4303 0.144166 29.1324C0.761254 27.9434 1.35469 26.7414 2.12874 25.6427C3.02105 25.9953 3.99936 25.6169 4.88951 25.9674C4.83146 26.0856 4.77985 26.2082 4.7132 26.3222C4.08106 27.4116 3.44821 28.4995 2.81463 29.5861C2.58027 29.9881 2.75443 30.3042 3.02965 30.5966C3.30486 30.889 3.62953 30.831 3.9542 30.6095C4.53122 30.2177 5.15355 29.8971 5.80762 29.6549C10.5379 27.8939 15.2919 27.9132 20.0222 29.6549C20.7123 29.9107 20.8048 29.7495 20.8521 29.1001C20.9344 27.8169 21.1535 26.5461 21.5057 25.3094L24.0859 25.3202C23.83 26.8468 23.3957 28.3454 23.3914 30.0139C25.2537 29.2057 27.2277 28.6845 29.2462 28.468C32.4607 28.1691 35.5397 28.6292 38.4466 30.087C39.2529 30.4913 39.9517 30.6267 40.9214 30.1365C44.8519 28.1304 49.0489 28.0272 53.3127 28.7841C54.4307 28.984 55.4843 29.4097 56.6153 29.7817C56.5078 27.6316 55.9702 25.6771 55.4327 23.714C56.2927 23.6087 57.1528 23.8882 57.9892 23.499C58.7009 25.3589 58.9374 27.3177 59.1718 29.2721C59.247 29.9 59.3115 30.1171 60.0103 29.8312C65.4222 27.5993 70.7223 27.9584 75.8912 30.6332C76.3212 30.8482 76.6631 30.9385 77.0265 30.5601C77.3898 30.1816 77.377 29.8462 77.1146 29.4162C76.3255 28.1132 75.5687 26.7887 74.7968 25.475L77.7575 25.4557C78.6025 26.5952 79.1551 27.9004 79.8518 29.1259C80.1227 29.6011 79.9743 30.1171 79.8518 30.6138C79.6566 31.3732 79.2371 32.0562 78.6479 32.5736C78.0588 33.091 77.3274 33.4189 76.5492 33.5144C76.0975 33.5704 75.64 33.4751 75.2483 33.2434C69.5677 30.077 63.9487 30.191 58.3913 33.5853C58.043 33.8003 57.8344 33.8562 57.5097 33.5316C55.8993 31.934 53.8093 31.4997 51.5453 31.0998C52.0118 31.7125 52.5967 31.9104 53.0504 32.2673C52.9815 32.6629 52.6676 32.5575 52.4225 32.5618C51.7108 32.5618 50.9991 32.5618 50.2874 32.5618C49.9886 32.5618 49.6875 32.5489 49.6424 32.9596L47.3181 31.3922C47.1203 31.2589 46.9461 31.0739 46.673 31.104C45.1873 31.2632 43.7446 31.5749 42.3513 32.2952C43.4006 33.2778 44.5315 34.0282 45.6324 34.813C45.5786 35.2087 45.2733 35.1356 45.0153 35.1399C44.4025 35.1399 43.7876 35.1399 43.1748 35.1399C42.8415 35.1399 42.5297 35.1399 42.3814 35.5226C42.2029 35.4086 42.0202 35.3076 41.8481 35.1764C41.2612 34.7614 40.715 34.0863 40.0807 33.9917C39.3841 33.8863 38.8853 34.7442 38.2488 35.1055C38.2003 35.1271 38.1499 35.1444 38.0983 35.1571C36.8082 35.0904 35.4881 35.2646 34.2066 34.9205L37.4791 32.4371C36.3696 31.848 35.2494 31.6136 34.1571 31.289C33.8198 31.171 33.4565 31.1488 33.1073 31.2247C32.7582 31.3006 32.4369 31.4717 32.179 31.719C31.6926 32.0891 31.1842 32.4295 30.6567 32.7382C29.6698 32.4307 28.6528 32.6307 27.6465 32.5661C27.3971 32.5446 27.0445 32.7016 26.9434 32.2694Z" fill="#4680E3"></path><path d="M74.7904 71.8983C74.7904 74.3947 74.7904 76.891 74.827 79.3873C74.827 79.8603 74.6679 80.0151 74.2249 79.9592C74.0911 79.9506 73.9568 79.9506 73.8229 79.9592C51.2751 79.9592 28.7253 79.9656 6.17323 79.9785C5.38843 79.9785 5.09816 79.8323 5.16052 78.9873C5.25082 77.8134 5.19707 76.6222 5.20567 75.4461H7.73208C7.83958 76.0675 7.46331 76.9512 7.90839 77.2608C8.35347 77.5704 9.18557 77.3489 9.84351 77.3855C10.2241 77.407 10.3789 77.2737 10.3445 76.8888C10.3366 76.6736 10.343 76.4581 10.3638 76.2438H12.8924C12.9483 77.3726 12.9483 77.3726 14.0642 77.3726H25.4728C27.0639 77.3726 27.0639 77.3726 27.1091 75.7578C27.1091 75.7041 27.122 75.6525 27.1284 75.5987H29.6548C29.7473 77.4134 29.7473 77.4134 31.6201 77.3726C31.6472 77.3704 31.6746 77.3704 31.7018 77.3726C32.1769 77.4478 32.2737 77.2113 32.2694 76.7791C32.2565 75.3665 32.2694 73.9517 32.2887 72.5391H34.813C34.813 73.9302 34.8539 75.3214 34.8281 76.7125C34.8281 77.2371 34.97 77.3898 35.4967 77.3833C38.1199 77.3575 40.7431 77.3726 43.3662 77.3726C45.1121 77.3726 45.1121 77.3726 45.1616 75.5966C45.1616 75.5428 45.1766 75.4912 45.1831 75.4375H47.7095C47.8213 76.061 47.4386 76.9211 47.8923 77.2586C48.3094 77.5704 49.12 77.3317 49.7543 77.379C50.2359 77.4177 50.3284 77.2092 50.3241 76.7791C50.3112 75.259 50.3241 73.7367 50.3413 72.2166H52.8677C52.8677 73.6894 52.9171 75.1622 52.8677 76.6329C52.8526 77.2371 53.0225 77.3919 53.6224 77.3876C57.3722 77.3575 61.122 77.3876 64.8719 77.364C65.5836 77.364 66.5189 77.6844 66.9489 77.2178C67.3789 76.7512 67.0241 75.8374 67.0435 75.1192H69.5549C69.5807 75.2762 69.6108 75.4332 69.6323 75.5901C69.7097 76.1642 69.3786 76.9705 69.7957 77.2586C70.2128 77.5467 70.9761 77.3253 71.5824 77.3812C72.1329 77.4328 72.2447 77.2027 72.2275 76.7017C72.2081 75.0977 72.2275 73.4959 72.2425 71.894L74.7904 71.8983Z" fill="#9B32FD"></path><path d="M22.5811 8.37256C25.1612 7.22224 27.8596 6.5084 30.6118 5.95796L30.8505 5.91926C31.6697 5.7838 32.5512 5.79025 33.2909 5.47203C34.1036 5.12371 33.923 4.07014 34.3122 3.37565C36.4838 -0.494587 41.7258 -1.19123 44.693 2.07267C45.4125 2.82849 45.9198 3.76078 46.1637 4.77539C46.2949 5.38388 46.5937 5.54083 47.1162 5.60319C49.6145 5.93016 52.0784 6.48066 54.4783 7.24804C56.1532 7.76407 57.7293 8.51232 59.3354 9.19821C59.2473 9.62824 58.8904 9.49923 58.628 9.50138C57.3767 9.51213 56.1274 9.50137 54.8761 9.51212C54.6094 9.51212 54.2568 9.38312 54.1773 9.82605C51.4896 9.0735 48.8019 8.29731 45.9573 8.24355L47.9182 9.61748C47.2044 10.0647 46.4131 9.74004 45.6713 9.82174C45.2521 9.8669 44.8113 9.76584 44.4995 10.1679C43.2782 9.50567 42.0978 8.77463 40.8335 8.1855C40.2508 7.91243 39.7585 7.85008 39.1822 8.1855C38.2985 8.68218 37.3761 9.11005 36.4688 9.56803C36.1462 9.23261 35.727 9.20036 35.2969 9.19391C34.4369 9.17671 33.5876 9.15091 32.734 9.12941L34.0606 8.07368C32.0502 8.23709 30.2312 8.70367 28.3929 9.06705C28.223 8.63702 27.8467 8.71443 27.5092 8.71228C26.0965 8.71228 24.686 8.71228 23.2734 8.71228C23.0111 8.70153 22.6585 8.82193 22.5811 8.37256ZM39.9756 5.18821C40.969 5.18821 41.9624 5.16456 42.9536 5.18821C43.476 5.20541 43.6868 5.11726 43.3707 4.58618C42.5923 3.2832 41.4571 2.5586 39.9305 2.5801C38.4039 2.6016 37.3503 3.34125 36.6021 4.62488C36.314 5.12156 36.5096 5.20326 36.9912 5.19036C37.9954 5.17746 38.9887 5.19681 39.9821 5.19465L39.9756 5.18821Z" fill="#1BA6D7"></path><path d="M5.20514 59.1608C5.17949 58.9756 5.17301 58.7882 5.18579 58.6017C5.27179 58.0792 5.04173 57.875 4.54075 57.7159C1.81868 56.8386 0.00611828 54.4068 0.0405204 51.7471C1.01883 51.803 2.01434 51.5944 2.9733 51.9363C2.63788 52.2008 2.68088 52.5319 2.81419 52.8759C3.01641 53.4316 3.34089 53.9348 3.76366 54.3482C4.18643 54.7617 4.69668 55.0749 5.25674 55.2647C5.47361 55.3626 5.71396 55.3964 5.9494 55.3621C6.18485 55.3278 6.40557 55.2269 6.58552 55.0712C7.68209 54.2112 8.83456 53.4307 9.94188 52.5878C10.5869 52.104 11.3137 51.7492 11.819 51.1021H14.3841C14.3217 51.6826 14.2163 52.2631 14.2056 52.8458C14.1776 54.1832 14.2056 54.1359 15.4957 54.1746C16.3106 54.1918 16.9728 54.1746 16.8223 53.0823C16.8073 52.9641 16.904 52.8329 16.947 52.7061C17.5491 52.7061 18.1511 52.7061 18.751 52.7061C19.0778 52.7061 19.4498 52.6028 19.654 52.9963C19.4214 53.292 19.3141 53.6673 19.3552 54.0413C19.3552 55.1572 19.3423 56.2731 19.3337 57.3869H16.8137C16.7019 57.1719 16.9642 56.7763 16.5277 56.7569C15.7365 56.7247 14.9001 56.5828 14.3432 57.3869L11.7415 57.3761C11.9996 56.4408 12.2898 55.5055 11.6555 54.5401C10.8836 55.1056 10.1504 55.7378 9.3377 56.2194C8.18307 56.8967 7.45848 57.7374 7.73155 59.1608H5.20514Z" fill="#7058F0"></path><path d="M79.3546 54.2113C78.544 56.0884 77.1658 57.2925 75.1597 57.7504C74.9726 57.4731 74.6845 57.5548 74.4287 57.5526C73.7062 57.5526 72.9859 57.5526 72.2635 57.5526C71.0766 56.3808 69.6167 55.5766 68.2621 54.5059C68.1094 55.0843 67.974 55.5938 67.8321 56.1034C65.2691 56.1034 62.704 56.1034 60.141 56.1034C59.8594 56.1034 59.4702 55.9164 59.3369 56.3851C57.0384 55.8906 55.2409 54.5833 53.6777 52.8997C54.1723 52.5084 54.7528 52.7643 55.2796 52.717C55.8064 52.6697 56.3418 52.7664 56.7696 52.3579C58.6402 53.7791 60.7624 54.293 63.0867 54.1726C63.8006 54.1339 64.5295 54.063 65.2369 54.2651C65.5013 54.3403 65.6346 54.2651 65.6669 53.9791C65.6991 53.6931 65.7572 53.4545 65.8045 53.1922C67.3762 53.1019 68.963 53.3921 70.5219 53.0094C71.1519 53.476 71.7969 53.9211 72.4054 54.4156C73.9363 55.6541 75.0092 55.596 76.381 54.1662C76.4906 54.0501 76.596 53.9511 76.7186 53.8286C77.3292 53.8286 77.9398 53.8393 78.5505 53.8286C78.8837 53.8372 79.2041 53.8372 79.3546 54.2113Z" fill="#7058F0"></path><path d="M77.7532 25.4597L74.7925 25.4791C73.4873 23.7461 72.1801 22.0131 70.6857 20.4306C68.3915 17.9966 65.7942 15.9368 63.042 14.0597C63.257 13.5588 63.7085 13.7523 64.0805 13.7028C64.9277 13.591 65.8135 13.9544 66.6284 13.4878C68.2733 14.5629 69.7181 15.8702 71.1286 17.2204C71.8382 17.8977 72.5284 18.5987 73.1756 19.3362C74.8591 21.2562 76.476 23.2322 77.7532 25.4597Z" fill="#3292DE"></path><path d="M4.88089 25.9629C3.99073 25.6124 3.01242 25.9909 2.12012 25.6382C3.77495 22.8788 5.75822 20.3303 8.02653 18.0483C9.33257 16.6606 10.773 15.406 12.3268 14.3027C12.7095 14.55 13.1417 14.4984 13.5653 14.5177C14.3823 14.5715 15.2187 14.335 16.0143 14.6833C14.4533 15.8637 12.8794 17.0248 11.4302 18.3385C8.93389 20.6284 6.80956 23.2086 4.88089 25.9629Z" fill="#3292DE"></path><path d="M16.0078 14.6832C15.2122 14.3349 14.3758 14.5714 13.5588 14.5176C13.1288 14.4897 12.6987 14.5413 12.3203 14.3026C15.3932 11.7782 18.8594 9.77492 22.5807 8.37256C22.6517 8.81549 23.0108 8.69508 23.2731 8.69723C24.6857 8.69723 26.0962 8.69723 27.5089 8.69723C27.8464 8.69723 28.2227 8.62197 28.3926 9.052C26.9993 9.51857 25.5974 9.95936 24.2127 10.4603C21.3057 11.5268 18.6223 13.0383 16.0078 14.6832Z" fill="#239FD9"></path><path d="M49.6465 32.9614C49.6852 32.5507 49.9862 32.5615 50.2915 32.5636C51.0032 32.5636 51.7149 32.5636 52.4266 32.5636C52.6717 32.5636 52.9856 32.6647 53.0544 32.269C54.4348 33.1721 55.7443 34.1848 57.1203 35.0879C58.9673 36.3005 60.6853 37.7003 62.5817 38.8377C62.6438 38.887 62.7001 38.9432 62.7494 39.0054C61.9151 39.4784 61.0013 39.2957 60.1133 39.3408C59.7887 39.358 59.4124 39.1946 59.1651 39.5558L49.6465 32.9614Z" fill="#5177E7"></path><path d="M26.943 32.269C27.0441 32.6991 27.3967 32.5443 27.6612 32.5593C28.661 32.6238 29.678 32.4238 30.6714 32.7313C27.5394 34.9976 24.3643 37.1986 21.1463 39.3344C20.297 38.9968 19.4133 39.2355 18.5468 39.1753C18.1511 39.1473 17.7448 39.2075 17.4395 38.8678C19.4412 37.4616 21.4387 36.0511 23.4448 34.6535C24.6037 33.8494 25.7755 33.0646 26.943 32.269Z" fill="#5177E7"></path><path d="M4.03613 48.1671C5.92825 46.8384 7.80747 45.4902 9.71679 44.1872C10.7919 43.454 11.7895 42.6026 12.9721 42.0371C13.8923 42.3833 14.8513 42.1855 15.7931 42.2521C16.0919 42.2693 16.4381 42.1296 16.6531 42.4865L7.62255 48.7412C7.44624 48.4596 7.15813 48.5413 6.90656 48.5262C6.21852 48.5262 5.53262 48.5262 4.84673 48.5262C4.51991 48.5241 4.18879 48.5391 4.03613 48.1671Z" fill="#6068EB"></path><path d="M79.3547 54.2114C79.2042 53.8373 78.8839 53.8373 78.5549 53.8395C77.9443 53.8395 77.3336 53.8395 76.723 53.8395C76.781 53.7191 76.8348 53.5986 76.895 53.4804C77.4648 52.3924 77.439 52.2935 76.465 51.6184C74.5141 50.2566 72.5668 48.8949 70.623 47.5331C70.8144 47.0171 71.2552 47.3181 71.582 47.2514C72.3883 47.1009 73.2806 47.5632 74.0138 46.9053C75.3039 47.5331 76.3682 48.4727 77.5486 49.2532C78.0346 49.5736 78.4409 50.0767 78.9656 50.2659C80.0406 50.6573 80.0707 51.4399 79.9331 52.3258C79.8364 52.9708 79.7439 53.6395 79.3547 54.2114Z" fill="#6A60EE"></path><path d="M66.6282 13.4855C65.8133 13.9542 64.9274 13.5909 64.0803 13.7005C63.7083 13.75 63.2568 13.5565 63.0417 14.0574C60.2347 12.3646 57.2693 10.9495 54.1875 9.83243C54.2671 9.3895 54.6175 9.52066 54.8863 9.51851C56.1377 9.50776 57.3869 9.51852 58.6383 9.50777C58.9006 9.50777 59.2575 9.64322 59.3457 9.20459C61.7847 10.2331 64.0795 11.5746 66.1723 13.1952C66.3099 13.3049 66.4734 13.3888 66.6282 13.4855Z" fill="#239FD9"></path><path d="M74.0187 46.8925C73.2855 47.5504 72.3932 47.0881 71.5869 47.2386C71.26 47.2988 70.8193 47.0043 70.6279 47.5203C68.5401 46.1313 66.4674 44.7251 64.457 43.2201C65.4418 42.9491 66.4502 43.0631 67.4522 43.0373C67.7295 43.0373 68.0477 43.1297 68.2413 42.8115C70.2065 44.1188 72.1803 45.4089 74.0187 46.8925Z" fill="#6068EB"></path><path d="M68.2413 42.8132C68.0478 43.1315 67.7296 43.0283 67.4522 43.039C66.4503 43.0648 65.4419 42.9509 64.4571 43.2218C62.6445 42.0693 60.8922 40.8265 59.1592 39.5665C59.4064 39.201 59.7827 39.3644 60.1074 39.3515C60.9954 39.3064 61.9092 39.4891 62.7434 39.0161C64.2817 39.9735 65.7674 41.0128 67.1942 42.1295C67.5318 42.3789 67.9618 42.4843 68.2413 42.8132Z" fill="#5870E9"></path><path d="M7.73148 75.4417H5.20508V69.7998H7.74438L7.73148 75.4417Z" fill="#8E40F9"></path><path d="M4.03601 48.1675C4.18867 48.5395 4.51119 48.5244 4.83586 48.5244C5.52175 48.5244 6.20764 48.5244 6.89568 48.5244C7.14725 48.5244 7.43537 48.447 7.61168 48.7394C6.10659 49.8661 4.57354 50.9454 2.98459 51.9474C2.02563 51.6055 1.03012 51.8141 0.0518115 51.7582C-0.122349 51.1132 0.155018 50.7562 0.696851 50.4165C1.84072 49.7048 2.92654 48.9179 4.03601 48.1675Z" fill="#6A60EE"></path><path d="M5.20508 59.1611H7.73148V64.6397H5.20508V59.1611Z" fill="#7951F3"></path><path d="M16.6508 42.4735C16.4357 42.1166 16.0917 42.2585 15.7907 42.2392C14.8489 42.1811 13.89 42.3789 12.9697 42.0242C14.3372 40.7986 15.9326 39.8912 17.4377 38.8613C17.743 39.201 18.1494 39.1408 18.545 39.1688C19.4051 39.229 20.2952 38.9903 21.1445 39.3279C19.6975 40.4524 18.1731 41.4608 16.6508 42.4735Z" fill="#5870E9"></path><path d="M74.7901 61.9111V67.0715H72.2637V61.9111H74.7901Z" fill="#8448F6"></path><path d="M5.20508 64.6396H7.73148C7.73148 66.3598 7.73148 68.0799 7.73148 69.8H5.20508V64.6396Z" fill="#8448F6"></path><path d="M72.2637 67.0713H74.7901V71.9091H72.2637V67.0713Z" fill="#8E40F9"></path><path d="M74.7901 61.9108H72.2637V57.5482C72.9861 57.5482 73.7064 57.5482 74.4289 57.5482C74.6847 57.5482 74.9728 57.4686 75.1599 57.746C74.8589 57.8922 74.8051 58.1373 74.8094 58.4555C74.8288 59.6058 74.7987 60.754 74.7901 61.9108Z" fill="#7951F3"></path><path d="M36.4748 9.56372C37.3821 9.10574 38.3045 8.67787 39.1883 8.18119C39.7688 7.85652 40.2633 7.91887 40.8396 8.18119C42.1038 8.77032 43.2843 9.50138 44.5055 10.1636C46.5169 11.5449 48.3911 13.1159 50.1023 14.8552C52.4178 17.4461 54.222 20.4518 55.4196 23.7137C55.9485 25.6768 56.4947 27.6377 56.6022 29.7814C55.4712 29.4095 54.4176 28.9837 53.2996 28.7838C49.0359 28.0269 44.8388 28.1387 40.9084 30.1362C39.9472 30.6264 39.2399 30.491 38.4336 30.0867C35.5266 28.629 32.4476 28.1688 29.2331 28.4677C27.2132 28.6838 25.2376 29.205 23.374 30.0136C23.374 28.3451 23.8041 26.8465 24.0685 25.3199C24.9258 22.3732 26.2672 19.5895 28.0377 17.0827C28.8827 16.0872 29.6954 15.0638 30.6178 14.1328C32.3831 12.3589 34.4064 10.9334 36.4748 9.56372Z" fill="#FEFEFE"></path><path d="M52.8977 14.4917C53.6997 15.0292 54.1512 15.8678 54.6479 16.6418C56.0283 18.792 57.2969 21.0087 57.9785 23.5029C57.1507 23.8878 56.2713 23.6083 55.422 23.7179C54.2242 20.4543 52.4193 17.4471 50.1025 14.8551C50.625 14.5476 51.2013 14.7261 51.7517 14.668C52.143 14.625 52.5666 14.8228 52.8977 14.4917Z" fill="#3292DE"></path><path d="M21.5059 25.3093C22.2498 22.2174 23.441 19.3298 25.3202 16.7432C25.5352 17.0291 25.862 16.913 26.1437 16.9238C26.7887 16.9496 27.4338 16.855 28.0509 17.0829C26.2819 19.5899 24.942 22.3736 24.086 25.3201L21.5059 25.3093Z" fill="#3292DE"></path><path d="M38.1066 35.1588C36.3865 36.5349 34.5825 37.8206 32.7656 39.0742C32.7205 38.6441 32.4066 38.6893 32.1206 38.6893C31.4584 38.6893 30.7961 38.6893 30.1339 38.6893C29.8737 38.6893 29.577 38.7474 29.5254 38.3582C31.0305 37.124 32.6237 36.0231 34.2234 34.918C35.4963 35.2663 36.8079 35.0921 38.1066 35.1588Z" fill="#5177E7"></path><path d="M46.7329 38.7024C45.2407 37.7047 43.798 36.6383 42.3896 35.5245C42.5316 35.1439 42.8498 35.1375 43.183 35.1418C43.7958 35.1418 44.4108 35.1418 45.0236 35.1418C45.2816 35.1418 45.5869 35.2106 45.6406 34.8149C47.0339 35.7266 48.3563 36.735 49.6592 37.7692C49.9237 37.9842 50.2075 38.1606 50.4828 38.3562C50.3322 38.5605 50.1108 38.5261 49.9001 38.5282C48.8422 38.5368 47.78 38.4745 46.7329 38.7024Z" fill="#5177E7"></path><path d="M27.1279 75.6028C27.0956 73.4742 27.0569 71.3455 27.1709 69.0771C26.1517 70.4511 25.197 71.7433 24.2381 73.0291C23.2361 74.3751 23.2383 74.3708 22.2148 73.014C21.1913 71.6573 20.1829 70.3844 19.2218 69.032C18.9316 68.6256 18.7144 68.5396 18.25 68.688C15.3473 69.6168 13.1219 72.5238 12.9284 75.6867C12.9176 75.8737 12.9026 76.0608 12.8918 76.2478H10.3633C10.3891 72.8635 11.6534 70.0748 14.341 67.9741C14.3815 68.0447 14.4411 68.1024 14.5131 68.1405C14.585 68.1785 14.6663 68.1954 14.7474 68.1891C16.8674 68.1891 18.9875 68.1891 21.1075 68.1891C21.292 68.1624 21.4717 68.1088 21.6407 68.03C22.0708 68.574 22.5008 69.1051 22.9136 69.6663C23.1566 70.0038 23.3135 69.9995 23.5586 69.6663C23.9629 69.1072 24.4058 68.5762 24.8315 68.0343C25.1194 68.1757 25.4412 68.2338 25.7604 68.202C26.9329 68.202 28.1047 68.202 29.2759 68.202C29.5575 68.202 29.8757 68.1203 30.0585 68.4514C29.693 69.6512 29.6758 70.9005 29.6758 72.154C29.6758 73.3022 29.6629 74.4525 29.6521 75.5942L27.1279 75.6028Z" fill="#8E40F9"></path><path d="M67.0541 75.1236C66.6541 73.1885 65.8457 71.4684 64.2954 70.1783C63.5656 69.5941 62.7524 69.1223 61.883 68.7786C61.6551 68.6797 61.453 68.5356 61.2745 68.9592C59.7952 72.5306 55.9959 73.3261 53.2007 70.6793C53.1448 70.6255 53.0803 70.5804 52.8675 70.4105V72.2317H50.3411C50.3669 70.6212 50.2207 69.0409 49.5391 67.553C49.92 67.4333 50.3181 67.3774 50.7173 67.3874C51.9171 67.4025 53.119 67.3874 54.321 67.3874C54.321 67.8175 54.5919 68.1314 54.7832 68.4625C54.9744 68.8355 55.2703 69.1446 55.6348 69.3516C55.9992 69.5587 56.4162 69.6547 56.8345 69.6279C57.253 69.6291 57.6625 69.5056 58.0106 69.2731C58.3587 69.0407 58.6296 68.7098 58.7889 68.3228C58.9309 68.011 59.0642 67.6971 59.2039 67.3831C60.6746 67.3831 62.1474 67.3831 63.6203 67.3831C63.8848 67.3831 64.2417 67.5251 64.3384 67.0864C67.3035 68.9721 69.2601 71.5157 69.5654 75.1301L67.0541 75.1236Z" fill="#8E40F9"></path><path d="M45.1826 75.4417C45.1826 73.6764 45.1719 71.9133 45.1504 70.1481C45.1504 69.7783 45.2514 69.6514 45.6428 69.6277C47.737 69.5009 47.7392 69.4901 47.7349 71.593C47.7349 72.8831 47.7177 74.1581 47.7091 75.4417H45.1826Z" fill="#8E40F9"></path><path d="M32.2887 72.5434C32.2887 72.223 32.2607 71.8983 32.2607 71.5844C32.2607 69.4923 32.2607 69.5031 34.3507 69.6278C34.7377 69.6514 34.8581 69.7697 34.8452 70.1438C34.8173 70.9436 34.8216 71.7435 34.813 72.5434H32.2887Z" fill="#8E40F9"></path><path d="M28.0461 17.0829C27.4247 16.855 26.7775 16.9496 26.1389 16.9238C25.8573 16.9238 25.539 17.0292 25.3154 16.7432C26.6573 14.6572 28.2916 12.7746 30.1683 11.1529C30.9853 10.4283 31.7959 9.69078 32.7484 9.12744C33.6085 9.14894 34.4556 9.17474 35.3114 9.19194C35.7414 9.19194 36.1607 9.23064 36.4832 9.56606C34.4148 10.9357 32.398 12.3612 30.6349 14.1351C29.7038 15.064 28.8911 16.0874 28.0461 17.0829Z" fill="#239FD9"></path><path d="M52.8972 14.4919C52.5597 14.8295 52.1361 14.6252 51.7534 14.6682C51.2029 14.7263 50.6267 14.5478 50.1042 14.8553C48.3938 13.12 46.5211 11.5525 44.5117 10.1745C44.817 9.77238 45.2643 9.87344 45.6835 9.82829C46.4318 9.74658 47.2166 10.0713 47.9304 9.62402C49.8118 11.013 51.5534 12.5525 52.8972 14.4919Z" fill="#239FD9"></path><path d="M17.7411 64.3535C17.2745 63.9433 16.9822 63.3703 16.9241 62.7517C16.8445 61.9884 16.4833 61.825 15.7845 61.8916C15.1708 61.9581 14.5503 61.8655 13.9828 61.6226C13.4153 61.3797 12.9198 60.9947 12.5443 60.5048C11.8025 59.5975 11.424 58.5697 11.7423 57.3785L14.3439 57.3893C14.1289 57.9934 14.1461 58.5589 14.6643 59.004C15.2384 59.4985 15.9888 59.4534 16.5801 59.2577C17.0703 59.0922 16.6962 58.3977 16.7822 57.9505C16.806 57.7644 16.8168 57.5768 16.8144 57.3893H19.3387C19.3473 58.7797 19.3566 60.1708 19.3666 61.5627C19.3666 62.756 19.8117 63.1882 21.0265 63.1925C22.4972 63.1925 23.9686 63.1925 25.4408 63.1925C26.6427 63.1925 27.0921 62.7453 27.1028 61.5627C27.1143 60.1708 27.1229 58.7797 27.1286 57.3893H29.655C29.655 57.8924 29.6701 58.3955 29.683 58.8944C29.683 59.0728 29.6701 59.2362 29.9238 59.3244C31.2375 59.7544 32.2889 58.9782 32.2352 57.6043C32.491 57.2538 32.8673 57.4237 33.192 57.3893C34.1854 57.2947 35.2024 57.5785 36.1764 57.2022C36.5268 57.8322 37.0622 58.0623 37.7761 58.0408C39.2482 58.0092 40.721 58.0092 42.1946 58.0408C43.0546 58.0601 43.6459 57.7634 43.8867 56.9033C45.2908 56.9592 46.7056 56.755 48.0989 57.0775C47.4667 58.1977 47.8344 59.1868 48.9353 59.3093C49.2255 59.3416 49.5244 59.3093 49.8168 59.3244C50.1974 59.3566 50.3329 59.2083 50.3221 58.8234C50.3049 58.1784 50.3328 57.5333 50.3414 56.9012H52.8679V62.0615H50.3479C50.2038 61.8314 49.9695 61.8938 49.7695 61.9067C47.9419 62.0078 46.4777 61.4229 45.5789 59.7308C45.5122 59.6061 45.4692 59.4513 45.2284 59.5373C44.4759 59.8082 44.3684 60.3027 44.964 60.8574C44.0308 61.2724 43.0417 61.0294 42.0806 61.1004C42.0032 60.9342 41.8758 60.7964 41.7162 60.7062C41.5566 60.616 41.3728 60.5779 41.1905 60.5973C40.3927 60.6413 39.593 60.6413 38.7952 60.5973C38.6117 60.5755 38.4259 60.6114 38.2637 60.7001C38.1015 60.7887 37.9709 60.9256 37.89 61.0918C36.959 60.7521 35.9721 61.0703 35.0325 60.8531C35.7162 60.1952 35.7076 60.1694 34.5638 59.4598C33.7037 61.3154 32.1707 62.0142 30.199 61.8959C29.741 61.868 29.5153 62.0078 29.5196 62.5302C29.5196 63.1753 29.3239 63.7924 28.7305 64.1858C28.5886 63.9708 28.3671 63.9923 28.1542 63.9923H18.3432C18.0658 63.9966 17.7841 63.9708 17.7411 64.3535Z" fill="#7951F3"></path><path d="M22.9121 54.123C22.1897 53.7725 21.4629 53.4328 20.7469 53.0673C20.5877 52.9664 20.4054 52.9079 20.2172 52.8974C20.0291 52.8869 19.8413 52.9246 19.6719 53.0071C19.4568 52.6136 19.0956 52.7211 18.7688 52.7168C18.1689 52.7168 17.5669 52.7168 16.9648 52.7168C17.5604 50.7688 19.5622 49.7346 21.407 50.5667C23.3959 51.4654 25.316 52.5211 27.2661 53.5081C27.1995 53.9488 26.8533 53.8392 26.5824 53.8413C25.574 53.8413 24.5656 53.8413 23.5593 53.8413C23.3163 53.8478 23.011 53.7403 22.9121 54.123Z" fill="#6A60EE"></path><path d="M17.3108 47.3178C15.939 48.2162 14.9114 49.5521 14.3952 51.1085H11.8301C12.0991 49.5168 12.8425 48.0434 13.963 46.8813C14.7693 47.2576 15.6272 46.9996 16.4572 47.0792C16.756 47.1007 17.1044 46.9609 17.3108 47.3178Z" fill="#6A60EE"></path><path d="M53.6844 52.9039L53.2199 52.8803C53.0049 52.6309 52.7297 52.719 52.4738 52.7169C51.3321 52.7169 50.1882 52.7169 49.0444 52.7169C48.9593 52.4066 48.793 52.1245 48.5628 51.8998C47.9779 51.4225 47.2727 51.502 46.6405 51.6483C46.2105 51.7493 46.5545 52.36 46.4255 52.7233H43.8927C44.0496 51.7794 43.6432 51.4332 42.695 51.2634C41.0523 50.9736 39.5325 50.2028 38.3281 49.0487C38.7366 48.7821 39.1989 48.8853 39.644 48.8509C40.6417 48.7778 41.6587 49.0509 42.637 48.666C42.9746 48.7327 43.3164 48.7907 43.6519 48.866C45.3075 49.2337 47.0082 48.7972 48.6638 49.1541C48.8788 49.1992 48.8788 48.9713 48.9734 48.8531H51.474C51.545 49.6078 51.1343 50.2937 51.1279 51.0333C51.216 51.0548 51.2848 51.0935 51.3085 51.0763C52.8609 49.8916 54.6197 49.9496 56.2409 51.8095C56.4107 52.003 56.5978 52.1793 56.7762 52.3642C56.3462 52.7728 55.8065 52.6782 55.2862 52.7233C54.7659 52.7685 54.1875 52.5126 53.6844 52.9039Z" fill="#6A60EE"></path><path d="M60.4057 62.687C60.711 62.1408 60.6207 61.5431 60.6207 60.9669C60.6207 59.8423 60.5971 58.7178 60.6336 57.5954C60.653 56.9676 60.6143 56.4731 59.7908 56.5354C59.6318 56.5162 59.4774 56.4688 59.335 56.3957C59.4683 55.9269 59.8574 56.114 60.1391 56.114C62.7021 56.099 65.2672 56.114 67.8302 56.114C69.4234 58.864 67.14 62.1838 64.1556 61.9065C63.489 61.8441 63.0955 62.0118 63.0504 62.7214L60.4057 62.687ZM63.2009 58.0448C63.3622 58.52 62.7494 59.4338 64.018 59.3349C65.1683 59.2511 65.7725 58.8898 65.7875 58.0448C65.8026 57.1998 65.1833 56.8128 64.0674 56.7117C62.8332 56.6107 63.2955 57.4557 63.1988 58.0405L63.2009 58.0448Z" fill="#7951F3"></path><path d="M65.8089 53.1963C65.826 51.8987 65.5012 50.6196 64.8672 49.4873C65.7595 49.2465 66.6733 49.3497 67.5785 49.3218C67.8817 51.0935 69.1675 52.0825 70.5263 53.0135C68.9675 53.3962 67.3807 53.106 65.8089 53.1963Z" fill="#6A60EE"></path><path d="M67.5787 49.322C66.6735 49.3499 65.7597 49.2467 64.8674 49.4875C63.3859 47.3159 61.3304 46.3269 58.7072 46.4172C57.2022 46.4688 55.7078 46.4387 54.2092 46.4172C53.4361 46.4365 52.6691 46.558 51.9279 46.7784C51.629 46.8536 51.3344 46.9525 51.528 47.4406C51.6888 47.8994 51.6688 48.4022 51.4721 48.8468H48.9758C49.2624 46.1993 48.3665 44.0491 46.2881 42.3964C46.5461 42.1104 46.8837 42.0846 47.2384 42.0846C48.0103 42.0846 48.7822 42.0846 49.5541 42.0717C50.1132 42.5942 50.3626 43.3081 50.7109 43.9596C50.8399 44.2025 50.9259 44.4326 51.2936 44.3423C52.016 44.1617 52.7449 44.0112 53.5878 43.822L51.5925 42.2696C52.2009 41.889 52.8696 42.1535 53.5104 42.0954C54.0264 42.0503 54.5661 42.1448 54.9983 41.7471C55.897 42.1255 56.598 42.8028 57.3634 43.3704C57.8068 43.7053 58.3495 43.8824 58.9051 43.8736C62.3066 43.923 65.1211 45.1335 66.9917 48.1136C67.2347 48.4834 67.4991 48.8619 67.5787 49.322Z" fill="#6068EB"></path><path d="M54.9985 41.7343C54.5685 42.1321 54.0267 42.0375 53.5106 42.0826C52.8656 42.1407 52.2012 41.8676 51.5927 42.2568C49.9328 41.1287 48.313 39.944 46.7334 38.7026C47.7805 38.4704 48.8427 38.5371 49.9006 38.5285C50.1156 38.5285 50.3306 38.5607 50.4832 38.3564C52.0498 39.3979 53.5572 40.5255 54.9985 41.7343Z" fill="#5870E9"></path><path d="M17.3103 47.3182C17.0952 46.9612 16.7555 47.1031 16.4502 47.073C15.6203 46.9935 14.7624 47.2515 13.9561 46.8752C15.5364 44.9745 17.6242 44.0199 20.0323 43.8973C21.2708 43.8371 22.3975 43.7231 23.3478 42.8652C23.6919 42.8652 24.038 42.8652 24.3842 42.8824C25.2959 42.9319 26.2419 42.6975 27.0977 43.2071L26.4505 43.8006C27.274 43.9919 28.0244 44.1747 28.7769 44.3402C29.0564 44.4004 29.1188 44.1618 29.2177 43.9747C29.4155 43.6006 29.5467 43.1878 29.8627 42.8824C30.626 42.8824 31.3893 42.8824 32.1526 42.8824C32.4085 42.8824 32.7074 42.8179 32.759 43.205C31.6058 44.4885 30.9659 46.1518 30.9614 47.8772H28.4221C28.5942 46.987 28.0394 46.7462 27.3213 46.5871C25.9968 46.3076 24.6594 46.4431 23.3263 46.4237C22.1782 46.4065 21.0257 46.3958 19.8861 46.4667C18.968 46.5334 18.123 46.8967 17.3103 47.3182Z" fill="#6068EB"></path><path d="M27.0955 43.2048C26.2355 42.6952 25.2937 42.9296 24.3821 42.8801C24.0359 42.8608 23.6897 42.8801 23.3457 42.8629C25.3539 41.2976 27.4116 39.8011 29.508 38.3477C29.5596 38.7368 29.8563 38.6788 30.1165 38.6788C30.7787 38.6788 31.4409 38.6788 32.1032 38.6788C32.3978 38.6788 32.7117 38.6422 32.7482 39.0637C30.912 40.5028 29.0278 41.8832 27.0955 43.2048Z" fill="#5870E9"></path><path d="M32.7439 43.205C32.6923 42.818 32.3934 42.8846 32.1376 42.8825C31.3743 42.8825 30.611 42.8825 29.8477 42.8825C31.0195 40.8828 32.7654 39.496 34.9822 39.0703C38.4353 38.4037 41.9615 38.3328 45.4125 39.1778C47.1089 39.5949 48.5022 40.6227 49.5536 42.059C48.7817 42.059 48.0098 42.074 47.2379 42.0719C46.8832 42.0719 46.5456 42.0977 46.2876 42.3836C45.1136 41.7085 43.8816 41.2441 42.4969 41.2634C41.1122 41.2828 39.6587 41.3236 38.2439 41.2634C36.126 41.1559 34.2941 41.7558 32.7439 43.205Z" fill="#5870E9"></path><path d="M60.4057 62.687L63.0589 62.7064C62.9256 63.6288 62.4139 64.3254 61.7344 64.9167C61.5517 65.0715 61.1926 65.1209 61.3044 65.4972C61.4162 65.8735 61.6807 65.9853 62.0075 66.0692C62.8407 66.2636 63.6323 66.6059 64.3447 67.0797C64.2479 67.5097 63.891 67.3743 63.6266 67.3764C62.1537 67.3893 60.6809 67.3764 59.2102 67.3764C58.9457 65.9982 58.6791 65.7638 57.3718 65.7638H56.1677C54.8583 65.7638 54.5938 65.996 54.3272 67.3764C53.1253 67.3764 51.9234 67.3764 50.7236 67.3764C50.3244 67.3663 49.9263 67.4223 49.5453 67.542C48.5649 65.7746 47.1909 64.4437 45.3031 63.6567C44.7419 63.4245 44.4087 63.4653 44.0754 64.0416C42.7724 66.2842 41.4178 68.4967 40.0116 70.8403C39.4333 69.8878 38.9108 69.0299 38.3926 68.1698C37.5798 66.8174 36.7305 65.4843 35.9737 64.0996C35.6125 63.4374 35.2383 63.4288 34.6213 63.6868C33.6573 64.0752 32.7804 64.652 32.0421 65.3833C31.3037 66.1147 30.7186 66.986 30.321 67.9462C30.2457 68.1161 30.149 68.2752 30.0608 68.4408C29.8802 68.1096 29.562 68.1913 29.2803 68.1913C28.1092 68.1913 26.9374 68.1913 25.7649 68.1913C25.4457 68.2231 25.1239 68.165 24.836 68.0236C24.9491 67.8116 25.0831 67.6114 25.2359 67.4259C25.5799 67.0754 25.5219 66.7486 25.3262 66.3508C25.1306 65.9531 24.8962 65.7445 24.4081 65.7703C23.6061 65.8154 22.7998 65.7961 21.9957 65.7703C21.6344 65.7703 21.456 65.9057 21.2281 66.2003C20.583 67.0303 21.4065 67.4495 21.6581 68.0301C21.4891 68.1088 21.3094 68.1624 21.1249 68.1892C19.0048 68.1999 16.8848 68.1892 14.7648 68.1892C14.6836 68.1955 14.6024 68.1786 14.5304 68.1405C14.4585 68.1025 14.3988 68.0448 14.3584 67.9742C15.3324 67.0668 16.5214 66.5486 17.7599 66.1229C18.1297 65.9961 18.5791 65.9961 18.7038 65.5166C18.8285 65.0371 18.2931 65.0392 18.1168 64.7748C18.0063 64.624 17.8864 64.4804 17.7578 64.3448C17.8008 63.962 18.0867 63.9878 18.3598 63.9878H28.1709C28.3859 63.9878 28.6009 63.9642 28.7471 64.1813C28.7213 64.6286 28.33 64.7726 28.0569 65.0134C27.9193 65.1338 27.7021 65.2091 27.7795 65.4435C27.844 65.6413 27.9064 65.8735 28.1515 65.9294C28.4891 66.0133 28.5471 65.7144 28.6654 65.5273C30.1705 63.1321 32.2712 61.5216 35.0491 60.8486C35.9887 61.0636 36.9842 60.7476 37.9067 61.0873C37.825 61.4098 37.5648 61.7216 37.7691 62.0699C38.4893 63.2955 39.2247 64.5146 40.0116 65.8369C40.6803 64.7232 41.2415 63.7277 41.8651 62.7687C42.2198 62.2247 42.4391 61.7087 42.0973 61.0916C43.0584 61.0206 44.0474 61.2636 44.9806 60.8486C47.7285 61.4937 49.7711 63.1149 51.3106 65.4349C51.446 65.6499 51.4848 65.9788 51.8503 65.938C52.0653 65.9122 52.1362 65.723 52.2158 65.5488C52.3964 65.1768 52.0567 65.0952 51.8653 64.9403C50.9451 64.1942 50.3839 63.2654 50.3602 62.0527H52.8866C53.0651 62.8074 53.5575 63.1751 54.3186 63.1772C55.9463 63.1772 57.5739 63.1772 59.2037 63.1772C59.6533 63.1787 60.0853 63.0025 60.4057 62.687Z" fill="#8448F6"></path><path d="M36.1032 51.5905C36.129 53.464 36.1533 55.3367 36.1763 57.2088C35.2023 57.585 34.1853 57.3012 33.1919 57.3958C32.8672 57.4259 32.4909 57.2561 32.2351 57.6108C31.8309 56.8239 31.1385 56.7228 30.3387 56.7336C29.8248 56.7336 29.6012 56.8841 29.6549 57.3958H27.1285C27.3048 56.4562 26.7995 56.0262 25.9932 55.6757C24.9397 55.2242 23.9377 54.6458 22.9121 54.1233C23.0024 53.7406 23.3163 53.8481 23.5571 53.846C24.5634 53.846 25.5718 53.846 26.5802 53.846C26.8512 53.846 27.1973 53.9535 27.264 53.5127L28.5025 54.0223C28.4702 53.5922 28.4422 53.2418 28.4143 52.8827H30.9429C31.2353 54.0008 31.6567 54.2459 33.0435 54.1728C33.4177 54.1556 33.566 54.0588 33.5531 53.6696C33.5359 53.0246 33.5639 52.3796 33.5725 51.7345C34.4067 51.4572 35.2668 51.6335 36.1032 51.5905Z" fill="#7058F0"></path><path d="M43.8867 56.9053V52.7126H46.4131C46.4131 53.0609 46.4303 53.4071 46.4411 53.7532C46.4411 53.9424 46.4411 54.0929 46.7012 54.1661C47.9182 54.5079 48.8707 53.9274 49.0384 52.7126C50.1823 52.7126 51.3262 52.7126 52.4679 52.7126C52.7238 52.7126 53.0097 52.6266 53.214 52.876C53.0908 52.9952 52.9966 53.1412 52.9389 53.3026C52.8811 53.4641 52.8612 53.6366 52.8807 53.807C52.8807 54.8369 52.87 55.869 52.8614 56.901H50.3414C49.9808 56.7487 49.5889 56.6852 49.1986 56.7159C48.8084 56.7466 48.4312 56.8705 48.0988 57.0773C46.7055 56.7505 45.2908 56.9655 43.8867 56.9053Z" fill="#7058F0"></path><path d="M30.9471 52.8802H28.4185C28.4185 52.8286 28.3862 52.7663 28.4056 52.7233C29.0506 51.2418 28.6357 49.7625 28.4056 48.2832C28.3961 48.1498 28.4004 48.0158 28.4185 47.8833H30.9428C31.0546 49.0551 31.0546 49.053 32.1941 49.0143C32.5095 49.0042 32.8256 49.0042 33.1423 49.0143C33.3853 49.0143 33.5573 48.967 33.5724 48.6896H36.0988V51.5901C35.2559 51.6374 34.4002 51.4611 33.5724 51.7492C32.2027 51.2311 31.2696 51.631 30.9471 52.8802Z" fill="#6A60EE"></path><path d="M33.5763 48.6833C33.5011 47.1158 34.1311 45.9848 35.3932 45.4193C36.6553 44.8539 37.9347 45.1076 39.0484 46.2257C40.0891 47.2771 41.1986 48.2188 42.6456 48.6553C41.6673 49.0402 40.6503 48.7671 39.6526 48.8402C39.2075 48.8746 38.7453 48.7714 38.3367 49.038L37.3885 48.2188C37.1391 48.0038 36.9585 47.6318 36.5414 47.7587C36.0834 47.9006 36.1565 48.3263 36.1113 48.6833H33.5763Z" fill="#6068EB"></path></g><defs><clipPath id="clip0_2146_718"><rect width="80" height="79.972" fill="white"></rect></clipPath></defs></svg> 