<?xml version="1.0" encoding="UTF-8"?> <svg xmlns="http://www.w3.org/2000/svg" width="80" height="80" viewBox="0 0 80 80" fill="none"><g clip-path="url(#clip0_1756_611)"><path d="M79.988 74.5127C79.988 76.2044 79.988 77.8981 79.988 79.5898C79.988 79.9252 79.9234 80.0502 79.588 79.9835C79.4841 79.9731 79.3794 79.9731 79.2755 79.9835H0.00878906V74.5127H79.988ZM39.9984 77.3773H75.8317C77.3838 77.3773 77.3838 77.3773 77.3838 75.8189C77.3838 74.8252 77.3838 74.8252 76.3817 74.8252H4.15879C2.60671 74.8252 2.60671 74.8252 2.60879 76.3648C2.60879 77.3752 2.60879 77.3773 3.61087 77.3773H39.9984Z" fill="#9C31FD"></path><path d="M79.988 74.5123H0.00878906V71.3873H2.59004C2.71713 71.6686 2.39421 72.2082 3.00671 72.204C3.69838 72.204 4.49629 72.4582 5.04421 72.0811C5.42338 71.8207 5.10046 71.0582 5.18171 70.5269C5.18171 70.4998 5.18171 70.4748 5.19212 70.4498C5.68171 70.4498 6.17337 70.4248 6.65046 70.4498C7.51712 70.504 8.40254 70.2748 9.25046 70.6102C9.05463 71.1207 8.85671 71.629 8.64629 72.179H17.1984L15.715 69.0665L20.6088 69.0415C20.6192 69.8207 20.6817 70.604 20.6213 71.3769C20.565 72.0853 20.8192 72.2498 21.4921 72.2311C23.1775 72.1894 23.1775 72.2311 23.2796 70.604H25.7671C25.7775 70.7582 25.7921 70.9144 25.7963 71.0707C25.8213 72.3478 25.588 72.2102 26.9713 72.2123C32.356 72.2123 37.7414 72.2123 43.1275 72.2123C43.7713 72.2123 44.5859 72.4811 45.015 72.0915C45.4442 71.7019 45.0692 70.9061 45.1776 70.2957H47.6942C47.746 70.6543 47.7648 71.0169 47.7505 71.379C47.6588 72.0936 47.9588 72.2332 48.6255 72.2311C54.5005 72.2061 60.3776 72.2165 66.2546 72.2123C66.5526 72.2123 66.8796 72.3144 67.1234 72.004H69.6442C70.0192 72.4207 70.5088 72.1852 70.938 72.1998C72.1296 72.2352 72.1296 72.2123 72.2921 71.0707C73.1255 71.0498 73.9796 71.1394 74.8067 70.9123C74.8755 72.2102 74.8755 72.2103 76.2192 72.2103C76.4796 72.2103 76.738 72.2103 76.9963 72.2103C77.0477 72.217 77.1 72.2128 77.1497 72.198C77.1994 72.1832 77.2454 72.158 77.2847 72.1242C77.3241 72.0904 77.3558 72.0487 77.3779 72.0017C77.4 71.9548 77.4119 71.9038 77.413 71.8519H79.9859L79.988 74.5123Z" fill="#963FFB"></path><path d="M54.2294 9.69189L54.2148 0.00855891H61.869C61.8836 1.53773 61.9044 3.06898 61.9086 4.5919C61.9086 4.95023 61.944 5.1669 62.4003 5.16482C65.5142 5.14815 68.6294 5.14815 71.7461 5.16482C72.119 5.16482 72.244 5.03982 72.2357 4.67107C72.2065 3.11482 72.1961 1.56064 72.1774 0.00439453C74.6253 0.00439453 77.0732 0.0148112 79.5211 0.00439453C79.9107 0.00439453 80.0023 0.091892 79.9982 0.483559C79.9794 3.13773 79.9982 5.79397 79.9982 8.45022H77.4148C77.4148 7.09814 77.3961 5.74189 77.3919 4.39189C77.3919 2.60439 77.3919 2.63147 75.5961 2.60231C74.9815 2.60231 74.8128 2.7669 74.819 3.3794C74.844 6.05856 74.819 8.73773 74.8065 11.4169C74.3711 11.4565 73.9523 11.5856 73.5023 11.5836C68.7982 11.5697 64.0933 11.5697 59.3878 11.5836C59.3794 9.19745 59.3697 6.81203 59.3586 4.42731C59.3586 2.56689 59.3586 2.58981 57.4836 2.58148C56.8982 2.58148 56.7378 2.75439 56.744 3.33356C56.7669 5.45856 56.744 7.58565 56.7232 9.71065L54.2294 9.69189ZM67.0565 10.3169H70.4148C72.2565 10.3169 72.2253 10.3169 72.2503 8.50231C72.2503 7.84606 72.0128 7.73982 71.4378 7.74398C68.8878 7.76898 66.3357 7.75648 63.7836 7.75648C61.8482 7.75648 61.8648 7.75648 61.8961 9.72106C61.8961 10.2106 62.0628 10.3336 62.5211 10.3273C64.0482 10.3169 65.5482 10.3169 67.0565 10.3169Z" fill="#18A7D6"></path><path d="M25.7838 0.0101903C25.7838 3.34352 25.7789 6.67686 25.7692 10.0102H23.2817C23.2713 8.1352 23.2546 6.27894 23.2484 4.41435C23.2421 2.54977 23.2484 2.57477 21.3588 2.56852C20.7734 2.56852 20.6171 2.74144 20.6255 3.3206C20.6546 5.28935 20.6255 7.25811 20.6109 9.22895H18.1213C18.0951 9.07557 18.0853 8.91981 18.0921 8.76435C18.2005 7.94352 17.8442 7.73311 17.0505 7.74977C14.4775 7.80186 11.9025 7.77061 9.32962 7.77061C7.82129 7.77061 7.82129 7.77061 7.74629 9.22895C6.89212 9.22895 6.03588 9.29561 5.19629 9.0727C5.19629 7.51228 5.17546 5.94769 5.17129 4.39144C5.17129 2.59977 5.17129 2.62477 3.3942 2.60185C2.79212 2.60185 2.59213 2.74561 2.59838 3.37686C2.62546 6.16019 2.59838 8.94353 2.59838 11.7269H0.00878906C0.00878906 7.97686 0.00878906 4.22685 0.00878906 0.476855C0.00878906 0.0872716 0.0962908 -0.00647583 0.485874 -0.00230916C2.93379 0.0185242 5.38171 -0.00230916 7.82754 -0.00230916C7.81088 1.50186 7.81296 3.00602 7.76504 4.50811C7.74837 5.01852 7.90671 5.16644 8.41712 5.16228C11.4282 5.14144 14.4393 5.14144 17.4505 5.16228C17.9692 5.16228 18.1109 5.01435 18.1046 4.50602C18.088 3.00394 18.1234 1.49977 18.138 -0.00439453L25.7838 0.0101903Z" fill="#18A7D6"></path><path d="M79.988 51.7085V62.798H77.415C77.415 59.1022 77.415 55.4071 77.415 51.7127L79.988 51.7085Z" fill="#7853F2"></path><path d="M0.00878906 36.8708V26.7188H2.59004V36.8729L0.00878906 36.8708Z" fill="#4382E3"></path><path d="M79.988 18.1294V28.2815H77.415V18.1294H79.988Z" fill="#348DDE"></path><path d="M2.59004 71.3894H0.00878906V61.5498H2.59004V71.3894Z" fill="#8844F7"></path><path d="M79.988 33.2793V43.1189H77.415V33.2793H79.988Z" fill="#5570E8"></path><path d="M77.415 62.7998H79.988V71.8582H77.415V62.7998Z" fill="#8844F7"></path><path d="M77.4142 43.1187H79.9871V49.6791H77.4121L77.4142 43.1187Z" fill="#5E68EB"></path><path d="M0.00878906 47.9603V42.0249H2.59004C2.59004 44.0027 2.59004 45.9797 2.59004 47.9561L0.00878906 47.9603Z" fill="#5E68EB"></path><path d="M0.00878906 57.0188V51.0854H2.58588C2.58588 53.0632 2.58588 55.0396 2.58588 57.0146L0.00878906 57.0188Z" fill="#695EEE"></path><path d="M2.59004 42.0248H0.00878906V36.8706H2.59004V42.0248Z" fill="#5570E8"></path><path d="M79.988 33.2793H77.415V28.2793H79.988V33.2793Z" fill="#4382E3"></path><path d="M0.00878906 11.7251H2.59004V16.7251H0.00878906V11.7251Z" fill="#26A1D9"></path><path d="M0.00878906 16.7231H2.59004V21.7232H0.00878906V16.7231Z" fill="#2E95DC"></path><path d="M0.00878906 21.7207H2.59004V26.7207H0.00878906V21.7207Z" fill="#348DDE"></path><path d="M77.415 8.44189H79.988V13.2836H77.415V8.44189Z" fill="#26A1D9"></path><path d="M77.415 13.2876H79.988V18.1293H77.415V13.2876Z" fill="#2E95DC"></path><path d="M0.00878906 57.0186H2.59004V61.5498H0.00878906V57.0186Z" fill="#7853F2"></path><path d="M2.58978 51.0898H0.0126953V47.9648H2.58978C2.6737 49.0048 2.6737 50.0499 2.58978 51.0898Z" fill="#8086EF"></path><path d="M77.4123 49.6729H79.9873V51.702H77.4123C77.33 51.0282 77.33 50.3467 77.4123 49.6729Z" fill="#8086EF"></path><path d="M25.7707 14.2228C25.8436 15.4728 25.8436 15.4728 27.1561 15.4728H53.0749C54.179 15.4728 54.179 15.4728 54.1999 14.3728C54.1999 14.2707 54.2186 14.1645 54.227 14.0645H56.7165C56.8103 15.4749 56.8103 15.4749 58.252 15.4749C58.4603 15.4749 58.6686 15.4582 58.877 15.4749C59.2415 15.5082 59.3999 15.3686 59.3666 14.9915C59.3605 14.7829 59.3682 14.5741 59.3895 14.3665H61.8895C61.9645 15.4603 61.9645 15.4603 63.1249 15.4603C65.0957 15.4603 67.0666 15.477 69.0374 15.4603C69.5395 15.4603 69.7186 15.5832 69.6957 16.1061C69.6499 17.1936 69.6665 18.2832 69.6561 19.3707H67.1395C67.1025 19.247 67.0843 19.1185 67.0853 18.9895C67.2228 18.204 66.8624 18.0499 66.1353 18.0665C64.0811 18.1165 62.0249 18.0665 59.9686 18.0895C59.377 18.0895 58.6645 17.854 58.227 18.204C57.827 18.5228 58.179 19.2457 58.054 19.7665C58.054 19.7915 58.0395 19.8165 58.0332 19.8415H55.5061C55.3978 18.0228 55.3999 18.0395 53.5436 18.0707C53.0811 18.0707 52.8978 18.1978 52.9186 18.6832C52.9415 19.327 52.8874 19.9728 52.8665 20.6186H50.352C50.3415 19.9457 50.3374 19.2728 50.3207 18.5999C50.3207 18.379 50.3874 18.0874 50.0249 18.0874C49.327 18.0874 48.5499 17.9186 47.954 18.1728C47.4915 18.3686 47.8603 19.1665 47.7457 19.6853C47.7326 19.7355 47.7166 19.7849 47.6978 19.8332H45.1874C45.1558 19.4973 45.1503 19.1595 45.1707 18.8228C45.254 18.1853 44.979 18.052 44.3874 18.0603C42.2582 18.0936 40.127 18.0603 37.9957 18.079C37.404 18.079 36.6749 17.8353 36.2582 18.1936C35.8415 18.552 36.2082 19.279 36.0895 19.8332H33.5999C33.4853 18.0582 33.4853 18.0811 31.7249 18.0582C31.127 18.0582 30.852 18.202 30.954 18.8249C30.9601 18.9539 30.9517 19.0832 30.929 19.2103H28.4395C28.3624 18.0728 28.3624 18.0728 27.1728 18.0728C26.8624 18.0728 26.5478 18.0853 26.2457 18.0728C25.9436 18.0603 25.7895 18.1999 25.7936 18.529C25.7936 19.1207 25.779 19.7124 25.7686 20.304H23.2832C23.2832 18.2749 23.2832 16.245 23.2832 14.2145L25.7707 14.2228Z" fill="#2E95DC"></path><path d="M56.7171 14.0669H54.2275C54.2275 12.6086 54.2275 11.1502 54.2275 9.69189H56.715L56.7171 14.0669Z" fill="#26A1D9"></path><path d="M25.7708 14.223H23.2812V10.0063H25.7688C25.7688 11.4133 25.7694 12.8189 25.7708 14.223Z" fill="#26A1D9"></path><path d="M5.18945 70.4523C5.18945 68.5259 5.18945 66.5995 5.18945 64.6731C6.02279 64.4522 6.88528 64.5231 7.73737 64.5168C7.76862 65.5897 7.83737 66.6647 7.6832 67.7335C7.6832 67.8043 7.6832 67.8897 7.79362 67.8522C7.96029 67.5606 8.13737 67.2752 8.28945 66.9772C9.28945 65.0147 10.286 63.0502 11.279 61.0835H14.527L17.9624 67.8168L18.1249 67.7668V62.3314H20.6103V69.046L15.7145 69.0668C14.7936 67.2502 13.8707 65.4335 12.902 63.5272C12.1165 65.1085 11.3811 66.5668 10.6332 68.0252C10.1895 68.8939 9.87071 69.8314 9.2582 70.6106C8.41029 70.2752 7.52487 70.5043 6.6582 70.4502C6.1707 70.4273 5.67904 70.4523 5.18945 70.4523Z" fill="#8844F7"></path><path d="M69.6441 63.2666C69.6441 66.1833 69.6441 69.0999 69.6441 72.0166H67.1233C67.0274 69.0999 67.0233 66.1833 67.1233 63.2666H69.6441Z" fill="#8844F7"></path><path d="M47.6933 64.2085C47.8027 66.2369 47.8027 68.2697 47.6933 70.2981H45.1787C45.1787 68.3189 45.1787 66.3405 45.1787 64.3627C46.0037 64.0794 46.8558 64.246 47.6933 64.2085Z" fill="#8844F7"></path><path d="M74.8059 65.6081C74.8059 67.3789 74.8059 69.1498 74.8059 70.9206C73.9726 71.1477 73.1392 71.0581 72.2913 71.0789C72.1828 69.2055 72.1828 67.3274 72.2913 65.4539C73.133 65.4956 73.983 65.3289 74.8059 65.6081Z" fill="#8844F7"></path><path d="M23.2812 70.6084C23.2812 68.8376 23.2812 67.0667 23.2812 65.2959H25.7667V70.6084H23.2812Z" fill="#8844F7"></path><path d="M59.3857 14.3791V11.5666C64.0927 11.5666 68.7975 11.5666 73.5003 11.5666C73.9503 11.5666 74.3691 11.4395 74.8045 11.3999V15.4624H72.2899C72.1859 14.8736 72.1691 14.2728 72.2399 13.6791C72.2837 13.0374 72.0316 12.9082 71.442 12.9145C68.8212 12.9416 66.1982 12.927 63.5753 12.927C62.0649 12.927 62.0649 12.927 61.8753 14.3853L59.3857 14.3791Z" fill="#26A1D9"></path><path d="M5.18945 13.9106V9.06689C6.02279 9.28981 6.88529 9.21689 7.73945 9.22314C7.81029 10.3211 7.81029 10.3211 8.89362 10.3211H16.779C17.9707 10.3211 17.9707 10.3211 18.1207 9.22106H20.6103C20.6103 10.7322 20.6103 12.2426 20.6103 13.7523H16.8915C16.8915 13.4711 17.2124 13.2752 17.0999 12.969C17.0461 12.9529 16.991 12.9417 16.9353 12.9356H9.46029C8.5582 12.9356 8.5582 12.9356 8.91862 13.7565C8.66708 13.8841 8.38516 13.9396 8.10404 13.9169C7.1332 13.9086 6.16237 13.9127 5.18945 13.9106Z" fill="#26A1D9"></path><path d="M52.8564 20.623C52.8869 22.3453 52.9168 24.0675 52.946 25.7897C52.0939 26.1043 51.2085 25.8647 50.3418 25.9355V20.6272L52.8564 20.623Z" fill="#348DDE"></path><path d="M55.5059 24.9999V19.8457H58.0288C58.1194 21.5619 58.1194 23.2816 58.0288 24.9978L55.5059 24.9999Z" fill="#348DDE"></path><path d="M25.7686 20.3169V25.1585H23.2832V20.3169H25.7686Z" fill="#348DDE"></path><path d="M47.6912 19.8418C47.7975 21.349 47.7975 22.8617 47.6912 24.3689H45.1787V19.846L47.6912 19.8418Z" fill="#348DDE"></path><path d="M69.6456 19.377V23.4415H67.1289C67.0299 22.0899 67.0299 20.7328 67.1289 19.3811L69.6456 19.377Z" fill="#348DDE"></path><path d="M30.9228 19.2231V23.4419H28.4395V19.2231H30.9228Z" fill="#348DDE"></path><path d="M33.5996 24.0665V19.8457H36.0829V24.0665H33.5996Z" fill="#348DDE"></path><path d="M25.7665 46.8687C25.777 47.4395 25.7978 48.0124 25.7915 48.5832C25.7915 48.9145 25.9061 49.0666 26.2457 49.0416C26.454 49.027 26.6624 49.0416 26.8707 49.0416C40.8429 49.0416 54.8166 49.036 68.7916 49.0249C69.4999 49.0249 69.727 49.1957 69.6874 49.9207C69.6207 51.1916 69.6541 52.4666 69.6436 53.7416H67.1291C67.0857 53.2776 67.0683 52.8116 67.077 52.3457C67.1124 51.7937 66.9749 51.5687 66.3561 51.577C63.8353 51.6103 61.3131 51.6103 58.7895 51.577C58.1645 51.577 58.0332 51.7853 58.0707 52.3457C58.0793 52.8122 58.064 53.2788 58.0249 53.7437H55.5061C55.4735 53.2798 55.468 52.8144 55.4895 52.3499C55.5499 51.7249 55.327 51.5624 54.7145 51.5728C53.0186 51.6041 53.0186 51.5728 52.8895 53.2749H50.3478C50.252 51.5728 50.2499 51.6082 48.5436 51.5749C47.9415 51.5749 47.7103 51.7228 47.752 52.352C47.8221 52.8658 47.8045 53.3878 47.6999 53.8957C46.8665 53.8957 46.0145 53.9603 45.1874 53.7437C45.1874 53.1978 45.1457 52.652 45.1686 52.1082C45.1853 51.6916 45.0165 51.5791 44.6207 51.5812C41.9679 51.5964 39.3158 51.5964 36.6645 51.5812C36.1915 51.5812 36.0999 51.777 36.1124 52.1895C36.1311 52.7603 36.0999 53.3312 36.0895 53.902H33.5999C33.5621 53.4126 33.5565 52.9213 33.5832 52.4312C33.6582 51.7395 33.4165 51.552 32.727 51.5707C31.0249 51.6187 31.0228 51.5832 30.9249 53.2791H28.4395C28.3332 51.5832 28.3311 51.6124 26.6249 51.5728C25.9228 51.552 25.7228 51.7666 25.7915 52.4395C25.8169 53.031 25.812 53.6235 25.777 54.2145H23.2832V46.8687H25.7665Z" fill="#695EEE"></path><path d="M33.6003 53.8959H36.0836C36.094 56.3959 36.0961 58.8834 36.119 61.3771C36.119 61.7938 35.9732 61.9105 35.5753 61.9084C33.367 61.8959 31.1586 61.8959 28.9503 61.9084C28.5544 61.9084 28.4003 61.7896 28.4024 61.375C28.4253 58.6667 28.4294 55.973 28.4399 53.2729H30.9232C30.9232 54.6709 30.9461 56.0688 30.9503 57.4646C30.9503 59.3959 30.9503 59.3792 32.917 59.3667C33.4253 59.3667 33.5857 59.225 33.5795 58.7104C33.5607 57.1063 33.5899 55.5021 33.6003 53.8959Z" fill="#7853F2"></path><path d="M23.2832 54.2085H25.7686V65.296H23.2832V54.2085Z" fill="#7853F2"></path><path d="M45.1816 53.7397C46.015 53.9481 46.8483 53.896 47.6941 53.8918C47.8483 55.1043 47.7608 56.321 47.7525 57.5356C47.74 59.7606 47.8483 61.9856 47.6941 64.2022C46.8608 64.2397 46.0046 64.0731 45.1816 64.3543V53.7397Z" fill="#7853F2"></path><path d="M50.342 53.271H52.8837C52.8962 54.671 52.9149 56.0689 52.9191 57.4668C52.9191 59.3897 52.9191 59.3731 54.8233 59.3647C55.3212 59.3647 55.4899 59.2335 55.4837 58.7147C55.4608 57.0481 55.4837 55.3981 55.5003 53.7397H58.0254C58.042 56.3085 58.0566 58.8772 58.0858 61.4481C58.0858 61.821 57.9358 61.9522 57.5774 61.9522C55.3191 61.9522 53.0594 61.9522 50.7983 61.9522C50.4295 61.9522 50.3045 61.8251 50.3087 61.4522C50.3295 58.7251 50.3337 55.9981 50.342 53.271Z" fill="#7853F2"></path><path d="M67.129 53.7354H69.6436V63.2624H67.129C66.9853 61.3874 67.0832 59.4895 67.0749 57.602C67.0686 56.3208 66.9894 55.0249 67.129 53.7354Z" fill="#7853F2"></path><path d="M69.6457 33.4415C69.6457 34.9749 69.6874 36.5082 69.6603 38.0415C69.6603 38.5895 69.8124 38.7436 70.3603 38.7394C72.1436 38.7394 72.1436 38.754 72.2353 37.0249C72.2469 36.9225 72.2678 36.8214 72.2978 36.7228C73.1311 36.6686 73.9853 36.8519 74.7978 36.5624V42.8124C73.979 43.0978 73.1311 42.9207 72.2978 42.9686C72.2649 42.6851 72.258 42.3992 72.277 42.1144C72.3791 41.4124 72.0978 41.2436 71.4145 41.2561C68.8395 41.2978 66.2645 41.2728 63.6874 41.2728C61.9749 41.2728 61.9749 41.2728 61.8666 42.9686H59.3895C59.2936 41.2665 59.2936 41.2665 57.5874 41.2728C57.484 41.279 57.3803 41.279 57.277 41.2728C56.8603 41.2269 56.727 41.404 56.7374 41.8082C56.7561 42.454 56.7374 43.104 56.7228 43.7519H54.2228C54.1905 43.208 54.1905 42.6626 54.2228 42.1186C54.2957 41.4207 54.052 41.254 53.3645 41.2582C47.3645 41.2874 41.3624 41.2749 35.3624 41.2749H26.4728C26.1478 41.2749 25.754 41.1811 25.7665 41.7207H23.2832V34.9978H25.7686C25.7686 36.0394 25.8103 37.0811 25.7874 38.1124C25.777 38.5853 25.9207 38.7374 26.402 38.7374C32.4533 38.7235 38.504 38.7235 44.554 38.7374C45.0415 38.7374 45.179 38.5832 45.1645 38.1124C45.1457 36.7124 45.1645 35.3103 45.1811 33.9082C46.004 34.1936 46.8478 34.0124 47.6936 34.0665C47.8478 35.3874 47.7457 36.7103 47.7478 38.0249C47.7478 38.5665 47.9082 38.729 48.452 38.7269C54.4242 38.7103 60.3964 38.7103 66.3686 38.7269C66.9145 38.7269 67.0707 38.5644 67.0707 38.0228C67.0707 36.4936 66.9811 34.9624 67.1186 33.4395L69.6457 33.4415Z" fill="#5570E8"></path><path d="M23.2832 41.7148H25.7665C25.8023 42.1556 25.8078 42.5983 25.7832 43.0398C25.702 43.7273 25.9395 43.9065 26.6353 43.9044C35.5603 43.8794 44.4853 43.8878 53.4124 43.8815C53.6832 43.8815 53.9874 43.9898 54.2249 43.7461H56.7249C57.2561 44.0461 57.8374 43.8003 58.3915 43.8898C59.1353 44.0128 59.5124 43.7628 59.3978 42.9648H61.8811C61.779 43.7607 62.1582 43.919 62.902 43.9065C65.6978 43.8579 68.4943 43.8579 71.2916 43.9065C72.0353 43.919 72.4166 43.7648 72.3124 42.9648C73.1457 42.9169 73.9957 43.094 74.8124 42.8086V46.8711H72.3124C72.2395 46.6044 72.1395 46.3794 71.7936 46.4273C71.6639 46.4357 71.5338 46.4357 71.4041 46.4273C56.4832 46.4273 41.5631 46.4273 26.6436 46.4273C26.3103 46.4273 25.8103 46.2065 25.7811 46.869H23.2832V41.7148Z" fill="#5E68EB"></path><path d="M5.19141 33.904V24.2207H7.73932V31.4832L7.94766 31.5165L10.4185 26.704H15.4185L17.9331 31.654L18.1414 31.6061V27.3436H20.6247V37.4957C20.3472 37.478 20.0689 37.478 19.7914 37.4957C19.2331 37.5728 18.631 37.2874 18.1247 37.7041L12.9352 27.4499L9.62891 33.927L5.19141 33.904Z" fill="#4382E3"></path><path d="M18.102 37.7064C18.6145 37.2897 19.2165 37.5772 19.7686 37.498C20.0461 37.4803 20.3245 37.4803 20.602 37.498V42.8168H18.1249C18.0957 42.6098 18.0873 42.4004 18.0999 42.1918C18.2207 41.4293 17.9103 41.2397 17.1624 41.2543C14.5603 41.3022 11.954 41.2731 9.35612 41.2731C7.78529 41.2731 7.78529 41.273 7.68945 42.8126H5.18945V33.9043L9.60404 33.9293C9.17487 34.8168 8.74501 35.7036 8.31445 36.5897C8.1236 36.9292 7.95788 37.2822 7.81862 37.646C7.56237 38.4793 7.76237 38.721 8.61237 38.721H17.029C18.077 38.721 18.077 38.721 18.102 37.7064Z" fill="#5570E8"></path><path d="M18.1246 42.8169H20.6079V47.8169L17.9371 47.8065C18.2996 46.5044 18.2496 46.4356 16.9475 46.4356H8.63086C7.69544 46.4356 7.52044 46.694 7.83919 47.6086C7.89753 47.7794 7.97878 47.9419 8.04753 48.1086L5.19336 48.1294V42.8169H7.69336C7.76211 43.8961 7.76211 43.8961 8.89544 43.8961H16.9371C18.0559 43.8856 18.0559 43.8856 18.1246 42.8169Z" fill="#5E68EB"></path><path d="M17.9375 47.7939L20.6083 47.8044C20.6083 50.2002 20.6083 52.5953 20.6083 54.9898H18.125V53.4585H17.9542L16.4167 56.4002C15.5167 56.3544 14.6042 56.5294 13.7188 56.2335C15.0632 53.3863 16.4694 50.5731 17.9375 47.7939Z" fill="#695EEE"></path><path d="M25.7686 34.9957H23.2832V25.1582H25.7686V34.9957Z" fill="#4382E3"></path><path d="M20.6083 27.3415H18.125C18.125 24.3207 18.125 21.3013 18.125 18.2832H20.6104C20.6104 21.3054 20.6097 24.3249 20.6083 27.3415Z" fill="#348DDE"></path><path d="M20.6106 18.2854H18.1231C18.1023 17.9771 18.0814 17.6604 18.0502 17.1979L17.4252 18.3083C16.571 18.1 15.6523 18.3083 14.8252 17.9167C15.4502 16.4958 16.1564 15.1167 16.8981 13.75H20.619C20.6134 15.2625 20.6106 16.7743 20.6106 18.2854Z" fill="#2E95DC"></path><path d="M18.125 54.9897H20.6104V62.3314H18.125V54.9897Z" fill="#7853F2"></path><path d="M74.8065 65.6084C73.9836 65.3292 73.1399 65.4959 72.3065 65.4584C72.1503 63.6771 72.2523 61.8938 72.2482 60.1105C72.2482 58.6667 72.1524 57.2167 72.3065 55.7729H74.8065V65.6084Z" fill="#7853F2"></path><path d="M74.8066 55.7688H72.3066C72.1546 53.6855 72.265 51.5834 72.2462 49.4896C72.2462 48.6126 72.1608 47.7334 72.3087 46.8584H74.8087L74.8066 55.7688Z" fill="#695EEE"></path><path d="M74.8063 36.5665C73.9834 36.8561 73.1396 36.6728 72.3063 36.7269C72.1563 34.9957 72.2459 33.2623 72.2479 31.5311C72.2479 29.6186 72.148 27.704 72.3063 25.7936C73.1396 25.7415 73.9938 25.9228 74.8063 25.6353V36.5665Z" fill="#4382E3"></path><path d="M72.2961 20.7792C72.1878 19.0107 72.1878 17.2372 72.2961 15.4688H74.8107C74.8107 17.2382 74.8107 19.0083 74.8107 20.7792H72.2961Z" fill="#2E95DC"></path><path d="M72.2958 20.7793H74.7958V25.621C73.9728 25.9085 73.1291 25.7272 72.2958 25.7793C72.1866 24.1144 72.1866 22.4442 72.2958 20.7793Z" fill="#348DDE"></path><path d="M13.7185 56.2271C14.6039 56.5229 15.5164 56.3479 16.4164 56.3938C15.806 57.6438 15.2039 58.8938 14.5768 60.1438C14.488 60.2839 14.4368 60.4445 14.428 60.6102C14.4193 60.7758 14.4533 60.9409 14.5268 61.0896H11.281C11.3571 60.9402 11.3925 60.7733 11.3837 60.6058C11.3749 60.4384 11.3223 60.2761 11.231 60.1354C10.631 58.9834 10.056 57.8167 9.47057 56.6563C8.96502 55.6479 8.45738 54.6403 7.94766 53.6334C7.80852 53.8954 7.74708 54.1918 7.77057 54.4875L7.73933 64.5229C6.88724 64.5229 6.02891 64.4584 5.19141 64.6792V52.9604C5.46425 53.0344 5.74313 53.0839 6.02474 53.1084C7.53516 53.1084 9.04349 53.1084 10.5518 53.0938L12.9102 57.6771L13.7185 56.2271Z" fill="#7853F2"></path><path d="M5.18945 13.9104C6.16237 13.9104 7.1332 13.9104 8.10612 13.9104C8.38725 13.9331 8.66917 13.8776 8.9207 13.75C10.0124 15.8042 11.0728 17.8729 12.0186 20C11.1415 20.2979 10.2332 20.0896 9.34153 20.1687C8.86792 19.2882 8.3957 18.4056 7.92486 17.5208L7.73737 17.5875V19.0667C6.88528 19.0667 6.03112 19.0958 5.19153 18.9125C5.19153 17.2444 5.19084 15.5771 5.18945 13.9104Z" fill="#2E95DC"></path><path d="M10.544 53.0936C9.03567 53.0936 7.52734 53.1165 6.01693 53.1082C5.73531 53.0837 5.45644 53.0342 5.18359 52.9603V48.1165L8.03776 48.0957C8.87526 49.7624 9.71067 51.4283 10.544 53.0936Z" fill="#695EEE"></path><path d="M5.19141 18.9106C6.02474 19.094 6.88516 19.0731 7.73724 19.0648C7.73724 20.7843 7.73724 22.5023 7.73724 24.219H5.19141V18.9106Z" fill="#348DDE"></path><path d="M7.68555 67.7334L7.79596 67.8521C7.67513 67.8896 7.68763 67.8042 7.68555 67.7334Z" fill="#7853F2"></path><path d="M33.5996 24.0668H36.0829C36.0933 25.3376 36.0829 26.6105 36.1204 27.8834C36.1204 28.3001 35.9725 28.4168 35.5746 28.4147C33.3663 28.3994 31.1579 28.3994 28.9496 28.4147C28.5538 28.4147 28.3933 28.298 28.4017 27.8834C28.4267 26.4043 28.4288 24.9251 28.4392 23.4438H30.9225C30.9329 24.0688 30.96 24.6938 30.9475 25.3188C30.9475 25.6876 31.0704 25.8501 31.4392 25.8084C31.5169 25.8032 31.5948 25.8032 31.6725 25.8084C33.485 25.8126 33.485 25.8126 33.5996 24.0668Z" fill="#4382E3"></path><path d="M47.6941 34.0667C46.8608 34.0125 46.0046 34.1937 45.1816 33.9083V24.375H47.6941C47.8441 25.6646 47.7587 26.9604 47.7525 28.25C47.7441 30.1833 47.8421 32.125 47.6941 34.0667Z" fill="#4382E3"></path><path d="M69.6459 33.4417H67.1271C66.9917 30.9083 67.0938 28.3729 67.073 25.8375C67.073 25.0375 66.9959 24.2354 67.1292 23.4375H69.6459V33.4417Z" fill="#4382E3"></path><path d="M55.5065 25H58.0295C58.0482 25.9833 58.0607 26.9688 58.0899 27.9521C58.0899 28.2833 57.967 28.4146 57.6336 28.4125C55.342 28.4125 53.0628 28.4021 50.7774 28.4125C50.3607 28.4125 50.3045 28.2188 50.317 27.8833C50.3378 27.2354 50.3378 26.5875 50.3482 25.9375C51.2149 25.8667 52.1003 26.1063 52.9524 25.7917C53.5127 25.7673 54.0738 25.7722 54.6336 25.8062C55.269 25.8708 55.5899 25.6813 55.5065 25Z" fill="#4382E3"></path><path d="M12.0184 20.0019L12.8997 21.5832L14.8184 17.9165C15.6518 18.3123 16.5643 18.0957 17.4184 18.3082C16.7663 19.6332 16.2247 21.0311 15.433 22.2665C14.4497 23.7977 14.2413 25.2102 15.408 26.6936H10.408C10.6158 26.1942 10.8523 25.7073 11.1163 25.2352C11.4309 24.7311 11.3955 24.3186 11.1163 23.8019C10.4913 22.6123 9.92259 21.3853 9.33301 20.1728C10.233 20.0915 11.1413 20.2998 12.0184 20.0019Z" fill="#348DDE"></path></g><defs><clipPath id="clip0_1756_611"><rect width="80" height="80" fill="white"></rect></clipPath></defs></svg> 