<?xml version="1.0" encoding="UTF-8"?> <svg xmlns="http://www.w3.org/2000/svg" width="80" height="81" viewBox="0 0 80 81" fill="none"><g clip-path="url(#clip0_1756_547)"><path d="M78.9008 69.0386C78.2555 70.8712 77.2532 72.4543 76.0164 73.9664C74.3573 76.0063 72.2268 77.6119 69.8088 78.6447C63.0075 81.5786 54.892 79.5846 50.2782 73.8782C49.9281 73.472 49.6216 73.03 49.3641 72.5597C49.0134 71.8757 48.751 72.0176 48.2886 72.4779C45.7354 74.9945 43.1392 77.466 40.5882 79.9826C40.1451 80.4127 39.9064 80.4321 39.4568 79.9826C36.6842 77.2509 33.888 74.5471 31.0918 71.8326C31.2875 71.5186 31.6037 71.6175 31.8812 71.6175C32.8577 71.6175 33.8342 71.6175 34.8086 71.6175C34.8732 71.7832 34.8086 71.9617 34.9807 72.1252C36.5251 73.5749 38.063 75.0354 39.5794 76.5174C39.9128 76.8443 40.1085 76.8099 40.4269 76.5023C42.6768 74.3098 44.9381 72.1302 47.211 69.9635C47.3487 69.858 47.4541 69.716 47.5153 69.5537C47.5765 69.3914 47.591 69.2152 47.5573 69.045C48.4176 69.0278 49.2974 69.1009 50.1513 68.8794C50.2653 69.0945 50.3814 69.3096 50.489 69.5247C53.3046 75.1386 59.3595 78.2984 65.5456 77.2315C70.4927 76.3711 74.0052 73.5125 76.2121 69.0257L78.9008 69.0386Z" fill="#9639FB"></path><path d="M74.8338 45.8021C74.316 46.7417 73.6775 47.6094 72.9346 48.3833C72.4054 48.9425 72.3839 49.2673 73.0163 49.7319C73.2529 49.904 73.6401 49.947 73.7261 50.3191C72.7926 50.6719 71.8204 50.4051 70.8696 50.4933C70.6029 50.517 70.2459 50.36 70.162 50.8052C70.0157 50.7428 69.8652 50.6891 69.7318 50.6181C67.1646 49.2991 64.2567 48.7927 61.3947 49.1662C58.8566 49.491 56.6261 50.5127 54.5548 51.9624C54.0299 51.6613 53.4556 51.829 52.9028 51.786C52.35 51.743 51.7736 51.9065 51.2509 51.6032C51.3547 51.4492 51.4792 51.3102 51.6209 51.1902C52.2984 50.76 52.2662 50.2503 51.9629 49.5749C51.4187 48.4196 50.7494 47.3275 49.9668 46.3184L53.0857 46.299C53.557 46.8831 53.929 47.5408 54.1869 48.2456C54.402 48.7919 54.5913 48.9511 55.1506 48.5919C55.9706 48.0877 56.8479 47.6833 57.764 47.3874C61.4906 46.0596 65.5735 46.136 69.2478 47.6025C69.7942 47.8176 70.1254 47.7573 70.4717 47.2906C70.9342 46.669 71.4568 46.0903 71.9537 45.4945H74.0875C74.3907 45.4816 74.6833 45.4709 74.8338 45.8021Z" fill="#6664ED"></path><path d="M17.3818 58.5682C15.6481 57.0281 14.0048 55.3891 12.3809 53.735C13.1186 53.3737 13.9037 53.6232 14.6652 53.5457C14.9663 53.5156 15.3104 53.6597 15.5255 53.3027C15.8766 53.5929 16.2119 53.9017 16.53 54.2276C16.9279 54.675 17.1409 54.761 17.4205 54.0942C18.0507 52.5886 19.1757 51.5518 20.6469 50.8678C21.0771 50.6635 21.5826 50.6527 21.9676 50.3301H24.4993C24.6219 50.5452 24.8692 50.5323 25.0607 50.5968C27.6418 51.4572 29.184 53.2403 29.6078 55.9139C29.754 56.8324 29.6787 57.7874 29.6809 58.7274C29.6809 60.7621 29.6809 60.7471 27.6267 60.6632C27.1965 60.646 27.089 60.4933 27.0955 60.0954C27.1148 58.9403 27.1277 57.7852 27.0955 56.6323C27.0438 54.8083 25.6952 53.3048 23.8432 52.9607C22.1655 52.6466 20.3393 53.6683 19.6726 55.2902C19.1714 56.5033 19.2424 56.8238 20.1759 57.7401C20.286 57.8558 20.3902 57.9771 20.4878 58.1036C20.3824 58.5338 20.0253 58.3638 19.7607 58.3897C18.9692 58.4606 18.1518 58.209 17.3818 58.5682Z" fill="#715AF0"></path><path d="M34.8174 71.6068C33.843 71.6068 32.8665 71.6068 31.89 71.6068C31.6125 71.6068 31.2963 71.5143 31.1006 71.8219C29.3798 70.1807 27.6483 68.5482 25.9383 66.8963C24.6305 65.6337 23.3572 64.3452 22.0537 63.0676C22.8022 62.7966 23.5809 62.9213 24.3466 62.8869C24.6499 62.8719 25.0027 63.0009 25.207 62.6417L32.2922 69.4301V61.1274H34.8174V71.6068Z" fill="#8447F6"></path><path d="M79.9487 27.7451C80.0671 29.524 79.9703 31.3108 79.6605 33.0665C78.828 32.8514 77.9741 32.9138 77.1267 32.9052L77.217 32.1889C77.3697 30.9715 77.3697 30.9715 76.1265 30.9715C71.7471 30.9715 67.3671 30.9715 62.9864 30.9715C62.668 30.9715 62.2594 31.1285 62.126 30.6187C61.8485 29.5024 61.5603 28.3861 61.2764 27.2697C62.1367 27.2159 62.9971 27.4031 63.8295 27.1084C63.9147 27.3604 63.9865 27.6167 64.0446 27.8763C64.1221 28.3065 64.3501 28.4076 64.7673 28.4054C68.7788 28.3904 72.7904 28.3839 76.8019 28.4054C77.3547 28.4054 77.4235 28.1667 77.4063 27.7451H79.9487Z" fill="#4281E3"></path><path d="M14.6885 3.07779C17.4223 1.49039 20.3906 0.597754 23.5073 0.20198C27.8377 -0.358247 32.2392 0.240731 36.2624 1.93778C36.9873 2.23891 37.6821 2.61103 38.3919 2.95088C38.3037 3.3359 37.9896 3.22835 37.7466 3.2305C36.6302 3.2305 35.5139 3.2305 34.3976 3.2305C34.019 3.2305 33.6469 3.23051 33.3909 3.57466C31.4142 3.07564 29.4224 2.67126 27.3683 2.59598C24.6301 2.49489 21.978 2.97454 19.3646 3.73382C19.0312 3.41979 18.6161 3.39613 18.1859 3.39613C17.2546 3.39613 16.3232 3.39613 15.3897 3.39613C15.123 3.39613 14.7681 3.52303 14.6885 3.07779Z" fill="#11AED4"></path><path d="M41.5088 3.01574C45.7649 0.702919 50.605 -0.313246 55.4318 0.0926176C57.2818 0.204327 59.108 0.566106 60.8608 1.16809C62.3816 1.71658 63.913 2.26722 65.3197 3.08888C65.2617 3.48465 64.9519 3.40292 64.7003 3.40292C63.7409 3.40292 62.7838 3.40292 61.8266 3.40292C61.3964 3.40292 60.977 3.42872 60.6414 3.74491C56.0906 2.28303 51.204 2.23204 46.6237 3.59865C46.4732 3.20718 46.1355 3.2416 45.8128 3.2416C44.8471 3.2416 43.877 3.2416 42.9155 3.2416C42.4358 3.23084 41.9433 3.30397 41.5088 3.01574Z" fill="#11AED4"></path><path d="M15.5296 53.2983C15.3145 53.6554 14.966 53.5134 14.6692 53.5414C13.9078 53.6188 13.1227 53.3693 12.3849 53.7307C9.35639 51.0183 6.48058 48.1726 4.40277 44.6258C4.32945 44.4862 4.2641 44.3425 4.20703 44.1956C4.60245 44.2192 4.99893 44.2192 5.39435 44.1956C5.92348 44.1332 6.50424 44.4343 6.97959 43.9805C8.53042 46.1314 10.0813 48.2996 12.23 49.9751C12.828 48.3512 13.4948 46.7853 14.6262 45.4711C15.6651 45.8539 16.7449 45.5507 17.7988 45.669C16.5444 46.9928 15.5609 48.5492 14.9037 50.2505C14.4735 51.3991 14.2283 52.4552 15.4952 53.2424C15.5102 53.2446 15.5167 53.279 15.5296 53.2983Z" fill="#6664ED"></path><path d="M0.303151 32.5844C-0.111981 30.2184 -0.0625036 27.8524 0.221421 25.4863H2.75523C2.70791 26.2585 2.6821 27.035 2.61111 27.8072C2.5681 28.2718 2.73587 28.4073 3.18972 28.3965C4.36844 28.3707 5.55575 28.3965 6.72372 28.3815C7.1539 28.3815 7.40342 28.5127 7.55398 28.945C7.98417 30.2141 8.47458 31.4681 8.94134 32.7264C8.08096 32.963 7.20338 32.8963 6.3301 32.9028C6.2247 32.6597 6.115 32.421 6.01821 32.1736C5.56436 30.9691 5.56651 30.9626 4.25229 30.9712C3.7253 30.9712 3.19832 31.0099 2.67134 31.0293L2.84987 32.5565L0.303151 32.5844Z" fill="#4281E3"></path><path d="M70.1611 50.7986C70.245 50.3534 70.6021 50.5104 70.8688 50.4867C71.8195 50.3985 72.7917 50.6653 73.7252 50.3125C74.919 50.99 75.7579 52.0333 76.5559 53.1087C77.9647 54.9822 79.0574 57.0191 79.4962 59.3465C78.6595 59.5616 77.8056 59.5035 76.956 59.5056C76.6367 58.5418 76.2566 57.5993 75.8181 56.6836C74.5103 54.1584 72.5551 52.2742 70.1611 50.7986Z" fill="#715AF0"></path><path d="M3.38965 14.9898C4.3124 12.9227 5.62233 11.1052 7.06131 9.37796C7.89135 8.32452 8.82844 7.36004 9.85753 6.5C9.97153 6.93019 10.32 6.76026 10.5824 6.77747C11.4729 6.83554 12.3784 6.65487 13.256 6.94955C12.6107 7.50665 11.9504 8.05083 11.3202 8.62729C9.19074 10.5782 7.50871 12.884 6.02886 15.3447C5.39433 15.3447 4.7598 15.3296 4.12527 15.3318C3.81769 15.3318 3.53161 15.3189 3.38965 14.9898Z" fill="#229ED9"></path><path d="M70.3141 6.65088C72.8522 8.89216 74.816 11.5765 76.4314 14.5341C76.5691 14.7879 76.6702 15.0611 76.7885 15.3256C75.8915 15.6182 74.9666 15.4461 74.0546 15.4891C72.2944 12.3755 69.985 9.60636 67.2383 7.31551C67.2748 6.9477 67.5351 6.9305 67.8212 6.93265C68.4385 6.93265 69.0537 6.93265 69.671 6.93265C69.9184 6.9348 70.2388 7.05311 70.3141 6.65088Z" fill="#229ED9"></path><path d="M3.39001 14.9897C3.53198 15.3188 3.8202 15.3317 4.12133 15.3317C4.75586 15.3317 5.39039 15.3317 6.02492 15.3446C5.16857 17.0323 4.43952 18.7816 3.84387 20.5779C3.34485 22.1889 3.08243 23.843 2.75549 25.4885H0.22168C0.615302 21.7867 1.58752 18.2635 3.39001 14.9897Z" fill="#3391DE"></path><path d="M41.5087 3.0157C41.9389 3.30392 42.4357 3.23079 42.9154 3.23079C43.8812 3.23079 44.8512 3.23079 45.8127 3.23079C46.1354 3.23079 46.473 3.19638 46.6236 3.58786C44.5157 4.31487 42.5368 5.33657 40.5558 6.33676C40.2353 6.49808 39.9664 6.61638 39.59 6.41849C37.5909 5.32745 35.5181 4.3773 33.3867 3.57495C33.6427 3.22865 34.0148 3.23079 34.3934 3.23079C35.5097 3.23079 36.626 3.23079 37.7424 3.23079C37.9876 3.23079 38.3016 3.33619 38.3877 2.95117C39.4158 3.62657 40.4526 3.80294 41.5087 3.0157Z" fill="#17AAD5"></path><path d="M74.0547 15.4891C74.9667 15.4461 75.8916 15.6182 76.7885 15.3257C78.064 17.7821 78.9997 20.3503 79.3697 23.1078C79.4004 23.2595 79.4436 23.4084 79.4987 23.553C78.6663 23.8391 77.8038 23.6692 76.9563 23.7144C76.368 20.8533 75.3918 18.086 74.0547 15.4891Z" fill="#3391DE"></path><path d="M0.303711 32.5844L2.85043 32.5586C3.14941 35.0816 3.9259 37.4799 4.82284 39.8395C3.98613 40.0826 3.08058 39.8395 2.25677 40.1837C1.19307 37.775 0.533222 35.2075 0.303711 32.5844Z" fill="#4B7AE5"></path><path d="M74.8336 45.8022C74.6831 45.4709 74.3905 45.4817 74.0937 45.4838H71.96C73.3158 43.5549 74.4691 41.4913 75.4015 39.3257C76.2812 39.4225 77.1824 39.2095 78.0471 39.5107C77.2897 41.7538 76.207 43.8736 74.8336 45.8022Z" fill="#596EE9"></path><path d="M78.049 39.5169C77.1886 39.2158 76.2831 39.4287 75.4033 39.332C76.1844 37.2506 76.7607 35.0981 77.1241 32.9049C77.9715 32.9049 78.8255 32.8447 79.6579 33.0663C79.4274 35.2814 78.8858 37.453 78.049 39.5169Z" fill="#4B7AE5"></path><path d="M70.3146 6.65055C70.2371 7.04847 69.9188 6.93446 69.6693 6.93877C69.052 6.95167 68.4368 6.93877 67.8195 6.93877C67.5334 6.93877 67.2732 6.95383 67.2366 7.32164C65.2182 5.81949 62.9971 4.61085 60.6396 3.73172C60.9752 3.41553 61.3946 3.38971 61.8248 3.38971C62.782 3.38971 63.7392 3.38971 64.6985 3.38971C64.9501 3.38971 65.2599 3.47146 65.3179 3.07568C67.2022 3.96617 68.7939 5.26104 70.3146 6.65055Z" fill="#17AAD5"></path><path d="M25.2068 62.6527C24.9917 63.0119 24.6475 62.8828 24.3464 62.8979C23.5807 62.9323 22.802 62.8075 22.0535 63.0786C20.4274 61.6482 18.9002 60.1146 17.3838 58.5616C18.1538 58.2024 18.9712 58.4583 19.7606 58.3744C20.0252 58.3486 20.3822 58.5272 20.4876 58.0884C22.0607 59.6112 23.6337 61.1327 25.2068 62.6527Z" fill="#7A50F3"></path><path d="M13.2501 6.94982C12.3725 6.65514 11.4669 6.83581 10.5764 6.77773C10.314 6.76053 9.96556 6.924 9.85156 6.50027C11.2819 5.12175 12.9129 3.96794 14.689 3.07812C14.7686 3.52337 15.1192 3.3857 15.3881 3.39C16.3194 3.40291 17.2508 3.39 18.1843 3.39C18.6145 3.39 19.0339 3.41582 19.3695 3.73201C17.2085 4.55651 15.1541 5.63681 13.2501 6.94982Z" fill="#17AAD5"></path><path d="M76.9561 59.5122C77.8057 59.5122 78.6596 59.5703 79.4963 59.353C79.9714 61.03 80.1132 62.7838 79.9136 64.5153H77.4099C77.4876 62.8347 77.3349 61.1514 76.9561 59.5122Z" fill="#7A50F3"></path><path d="M77.4098 64.5132H79.9178C79.8599 66.0682 79.5165 67.5993 78.9047 69.0302L76.2139 69C76.7836 67.5554 77.1849 66.0498 77.4098 64.5132Z" fill="#8447F6"></path><path d="M2.25586 40.1776C3.07967 39.8249 3.97661 40.0766 4.82193 39.8335C5.53174 41.2165 6.10174 42.6706 6.97288 43.9654C6.49752 44.4171 5.91676 44.116 5.38763 44.1805C4.99221 44.2042 4.59573 44.2042 4.20031 44.1805C3.37949 42.9372 2.72573 41.5914 2.25586 40.1776Z" fill="#596EE9"></path><path d="M76.9541 23.7141C77.8016 23.6689 78.6641 23.8388 79.4965 23.5527C79.8026 24.929 79.9541 26.3351 79.9482 27.7449H77.4166C77.2617 26.4013 77.1075 25.0577 76.9541 23.7141Z" fill="#3C87E1"></path><path d="M47.5657 69.0343C46.8703 67.4013 46.5048 65.6469 46.4902 63.8721H49.0111C49.1582 65.5844 49.5441 67.2677 50.1576 68.873C49.3058 69.0903 48.4325 69.0171 47.5657 69.0343Z" fill="#8447F6"></path><path d="M43.1974 37.0995C43.0122 37.7458 42.7215 38.357 42.337 38.9085C42.0595 39.3193 42.0337 39.5344 42.5951 39.6591C44.6693 40.0879 46.6647 40.8352 48.5102 41.8746C50.3754 42.9412 51.9438 44.4578 53.0723 46.2862L49.9535 46.3055C48.189 44.3834 45.88 43.0455 43.335 42.4704C42.7328 42.3327 42.5392 42.436 42.565 43.0834C42.6101 44.1589 42.565 45.2215 42.5542 46.2905H40.029L39.915 46.0969L39.7903 46.2883C39.0761 46.2883 38.3577 46.2668 37.6393 46.2883C36.5638 46.3335 35.4669 46.1249 34.4 46.441C34.215 46.1571 34.015 45.884 33.8494 45.5807C33.6343 45.172 33.4192 45.0494 33.2041 45.5807C33.126 45.7163 33.0337 45.8432 32.9288 45.9592C32.3179 45.9592 31.7092 45.9592 31.0983 45.9592C30.7692 45.9592 30.453 45.9592 30.3089 45.5785C30.4896 45.015 30.8681 44.5611 31.1693 44.06C31.3048 43.8298 31.4317 43.6298 31.0359 43.533C30.1927 43.3415 29.4184 42.9436 28.5258 42.5909C28.6806 43.477 29.1947 44.0965 29.4335 44.8128L26.6717 44.8278C26.1963 44.146 26.0092 43.3222 25.6155 42.6081C25.4843 42.3693 25.4521 42.0467 25.0025 42.1585C24.5938 42.2596 24.5293 42.4726 24.5315 42.8339C24.5422 43.8212 24.5207 44.8085 24.5121 45.7958H21.9697V43.0985C20.2963 43.6147 19.0315 44.617 17.7947 45.6603C16.7407 45.542 15.661 45.8452 14.6221 45.4624C15.0839 44.7732 15.631 44.1452 16.2503 43.5932C18.511 41.41 21.3008 40.3195 24.3121 39.6699C24.568 39.614 25.0068 39.7086 25.0004 39.2096C25.1445 38.874 25.4306 38.8676 25.7381 38.8719C26.4587 38.8719 27.1771 38.8719 27.8891 38.8719C28.0913 39.0461 28.2978 39.2182 28.4978 39.3967C30.5283 41.1906 32.8728 41.6789 35.469 41.0293C37.863 40.4313 39.4934 38.8783 40.6313 36.7554C40.7732 37.0888 41.0615 37.0995 41.3626 37.0974C41.9821 37.0952 42.5886 37.0995 43.1974 37.0995ZM37.1145 45.9958L38.6825 42.5134C37.9057 42.9343 37.0838 43.2662 36.2326 43.5029C35.8497 43.5997 35.7142 43.718 35.9551 44.0901C36.3143 44.6536 36.6499 45.2322 37.1145 45.9958Z" fill="#596EE9"></path><path d="M47.2715 58.2239C47.9879 55.7017 49.3577 53.4134 51.2421 51.5903C51.7648 51.8936 52.3413 51.7323 52.894 51.7732C53.4468 51.814 54.0211 51.6484 54.546 51.9495C52.4929 53.6254 50.8938 55.7903 49.8956 58.2454L47.2715 58.2239Z" fill="#715AF0"></path><path d="M21.9678 50.3236C21.9678 48.818 21.9678 47.3123 21.9678 45.8066H24.4951C24.4951 47.3123 24.4951 48.818 24.4951 50.3236H21.9678Z" fill="#6664ED"></path><path d="M32.2917 61.1276C32.2809 60.4371 32.2422 59.7445 32.2701 59.0562C32.3153 57.9356 32.2701 56.8407 31.7432 55.8169H35.3654C34.5631 57.2215 34.9137 58.7615 34.8448 60.2543C34.8298 60.5447 34.8255 60.8372 34.8169 61.1276H32.2917Z" fill="#7A50F3"></path><path d="M62.4722 22.1807C62.9756 23.5207 63.253 24.9253 63.5864 26.3083C63.6531 26.5836 63.9198 26.7923 63.8359 27.102C62.9992 27.3967 62.1345 27.2096 61.2828 27.2633C60.7665 25.7289 60.3357 24.1671 59.9922 22.585C60.5536 22.585 61.115 22.585 61.6742 22.585C62.0313 22.5979 62.3238 22.5399 62.4722 22.1807Z" fill="#3C87E1"></path><path d="M12.6065 31.7888C12.4796 33.6257 12.228 35.4454 11.9311 37.2672H7.95404C7.412 35.8175 6.87068 34.3663 6.33008 32.9137C7.20336 32.9137 8.08309 32.9739 8.94132 32.7373C9.15641 33.245 9.37151 33.7526 9.68124 34.4904C9.83611 33.445 9.96087 32.6169 10.0856 31.7866L12.6065 31.7888Z" fill="#4B7AE5"></path><path d="M72.2311 63.2229C72.2311 63.6789 72.2699 64.1349 72.2505 64.5909C72.2295 65.2552 71.953 65.8859 71.4786 66.3515C71.0042 66.8171 70.3684 67.0817 69.7038 67.0903C69.0585 67.1096 68.4132 67.1225 67.7679 67.0903C67.2625 67.0623 67.0366 67.1914 67.0796 67.7355C67.127 68.3486 67.099 68.9702 67.0796 69.5854C67.0517 71.1426 66.0042 72.2181 64.449 72.2461C63.6166 72.2633 62.7863 72.2633 61.9539 72.2461C61.6115 72.2504 61.2717 72.1861 60.9546 72.0569C60.6375 71.9276 60.3495 71.7361 60.1077 71.4937C59.8658 71.2513 59.6751 70.9628 59.5466 70.6454C59.4182 70.3279 59.3547 69.988 59.3599 69.6456C59.3427 68.9766 59.3362 68.3034 59.3599 67.6345C59.3749 67.2215 59.2502 67.058 58.8179 67.0795C58.1489 67.1096 57.4757 67.0989 56.8067 67.0795C55.3011 67.0472 54.2772 66.0212 54.2256 64.4984H56.8067C58.3124 64.4984 59.818 64.522 61.3237 64.4984C61.8034 64.4984 61.9926 64.6059 61.969 65.12C61.9281 66.004 61.9582 66.8924 61.9582 67.7786C61.9582 69.7488 61.9582 69.7316 63.9672 69.6821C64.4361 69.6692 64.5544 69.5208 64.5458 69.0777C64.5222 67.7355 64.5458 66.3934 64.5308 65.0512C64.5308 64.621 64.6555 64.4919 65.0793 64.5005C66.1784 64.5263 67.2797 64.5005 68.381 64.5005C69.6586 64.5005 69.6586 64.5005 69.7253 63.21L72.2311 63.2229Z" fill="#8447F6"></path><path d="M56.793 64.5044H54.2119C54.2119 63.6182 54.1667 62.732 54.1925 61.848C54.2071 61.1819 54.4813 60.5478 54.9566 60.0809C55.4319 59.614 56.0708 59.3512 56.7371 59.3486C57.3266 59.3109 57.9178 59.3109 58.5073 59.3486C59.1526 59.4131 59.4645 59.2217 59.3505 58.5291C59.3365 58.3139 59.3429 58.0978 59.3698 57.8838H61.8993C61.8993 59.0324 61.8993 60.181 61.9338 61.3253C61.9467 61.7684 61.8262 61.9469 61.3552 61.9233C60.6647 61.8867 59.9678 61.891 59.2731 61.9233C58.4578 61.9555 57.3716 61.5619 56.8963 62.0889C56.4209 62.6159 56.7887 63.6827 56.793 64.5044Z" fill="#7A50F3"></path><path d="M72.231 63.2225H69.7037C69.6806 63.0912 69.6734 62.9576 69.6821 62.8245C69.8112 62.0782 69.4907 61.8803 68.7701 61.9168C67.5699 61.9771 66.3654 61.9168 65.163 61.9405C64.7113 61.9512 64.4876 61.8803 64.5048 61.3425C64.5478 59.8734 64.5328 58.4044 64.5435 56.9331H67.0709C67.0709 57.5225 67.1268 58.1161 67.086 58.7012C67.0451 59.2862 67.2645 59.3938 67.7721 59.3594C68.3593 59.3206 68.953 59.3443 69.5423 59.3594C71.19 59.3787 72.2396 60.4348 72.2547 62.1018C72.259 62.4718 72.2396 62.8482 72.231 63.2225Z" fill="#7A50F3"></path><path d="M67.071 56.9355H64.5437C63.7801 56.5935 62.9799 56.8473 62.2013 56.7871C61.9862 56.772 61.9432 56.9247 61.9389 57.1033C61.9389 57.37 61.9195 57.6367 61.9109 57.9034H59.3814C59.3814 57.5033 59.3448 57.1011 59.362 56.6989C59.3782 56.0348 59.6517 55.4029 60.1248 54.9366C60.5979 54.4703 61.2337 54.206 61.898 54.1995C62.7584 54.1758 63.6187 54.1823 64.4791 54.1995C66.0493 54.2253 67.0925 55.3309 67.071 56.9355Z" fill="#715AF0"></path><path d="M47.2713 58.2236L49.8955 58.2408C49.2874 60.0536 48.9893 61.9559 49.0136 63.8677H46.4927C46.359 61.9527 46.6241 60.0309 47.2713 58.2236Z" fill="#7A50F3"></path><path d="M35.3662 55.8167H31.7376C31.0202 54.4553 30.374 53.0574 29.8018 51.6289C30.6621 51.2675 31.5741 51.5407 32.456 51.4396C32.8066 52.1322 33.1572 52.8269 33.5508 53.6099C34.1789 52.3193 34.7468 51.1514 35.3125 49.9834C36.1341 50.3921 37.0655 49.9726 37.8936 50.3232C37.1279 52.1859 36.2868 54.0207 35.3662 55.8167Z" fill="#715AF0"></path><path d="M37.4544 56.9331C37.3877 55.3393 38.1126 54.1756 39.4677 53.4099C39.8334 53.1948 40.07 53.0119 40.0313 52.5796H42.5586C42.522 53.0098 42.7543 53.2034 43.1222 53.4077C44.4235 54.1347 45.1397 55.2489 45.1376 56.7739H42.6081C42.4941 56.0361 42.1177 55.5178 41.3347 55.4984C40.5066 55.4791 40.1044 55.9996 39.9796 56.7739C39.1386 56.8212 38.2825 56.6427 37.4544 56.9331Z" fill="#715AF0"></path><path d="M37.4541 56.9331C38.2822 56.6427 39.1383 56.8212 39.9793 56.7739C40.0438 57.5547 40.4912 58.0107 41.2462 58.043C42.0743 58.0774 42.483 57.5504 42.6078 56.7739H45.1373C45.1353 57.7755 44.7463 58.7375 44.0517 59.459C43.357 60.1805 42.4104 60.6057 41.4097 60.6456C39.5384 60.7144 37.4735 59.1787 37.4541 56.9331Z" fill="#7A50F3"></path><path d="M42.5586 52.5799H40.0312C40.0312 50.4834 40.0312 48.387 40.0312 46.2905H42.5608L42.5586 52.5799Z" fill="#6664ED"></path><path d="M37.9037 50.3233C37.0734 49.9727 36.1421 50.3922 35.3226 49.9835C35.9549 49.0543 35.5764 48.2627 35.0021 47.4841C34.7846 47.1504 34.5857 46.805 34.4062 46.4495C35.4817 46.1333 36.5572 46.3419 37.6456 46.2968C38.3597 46.2667 39.0781 46.2968 39.7965 46.2968C39.1641 47.6361 38.5332 48.9783 37.9037 50.3233Z" fill="#6664ED"></path><path d="M53.2727 33.0516L53.8341 34.2131L54.2277 32.744H56.7874C56.579 34.049 56.299 35.3415 55.9485 36.6157C54.6257 36.2887 53.2813 36.5275 51.9477 36.4544C51.6359 35.7144 51.2702 34.9917 51.0271 34.2303C50.8422 33.6581 50.5303 33.4624 49.9753 33.5506C49.949 33.5549 49.9221 33.5549 49.8957 33.5506C48.9128 33.4301 48.1578 33.6388 47.5082 34.54C46.8177 35.4993 45.6864 36.0027 44.4969 36.0672C43.7161 36.1102 43.3246 36.3705 43.1891 37.0997C42.5804 37.0997 41.9738 37.0997 41.3651 37.0997C41.064 37.0997 40.7758 37.0996 40.6338 36.7576C41.3414 35.1079 41.2963 33.357 41.3135 31.6147H43.8408C43.8416 31.7736 43.8509 31.9323 43.8688 32.0901C43.9484 32.5655 43.5999 33.243 44.0516 33.4753C44.5033 33.7076 45.0454 33.2602 45.4992 32.9914C48.0847 33.4 50.683 33.3097 53.2727 33.0516Z" fill="#4B7AE5"></path><path d="M62.472 22.1805C62.3236 22.5376 62.0418 22.5978 61.6847 22.5892C61.1255 22.5763 60.5641 22.5892 60.0027 22.5892L59.4843 21.0535C59.2692 21.8966 59.0821 22.5591 58.9036 23.2323L56.3418 23.213C56.7634 21.3374 57.1842 19.461 57.6044 17.584C58.8038 17.8421 60.0444 17.8421 61.2438 17.584C61.6482 19.1183 62.0576 20.6505 62.472 22.1805Z" fill="#3391DE"></path><path d="M56.3417 23.2129L58.9034 23.2322C58.598 25.1337 58.1184 26.9985 57.6817 28.872L55.1006 28.8613C55.515 26.9799 55.9287 25.0971 56.3417 23.2129Z" fill="#3C87E1"></path><path d="M51.9561 36.4539C53.2896 36.5271 54.634 36.2883 55.9568 36.6153L54.6404 42.7992L54.4425 42.8358C53.6094 40.7092 52.7806 38.5819 51.9561 36.4539Z" fill="#596EE9"></path><path d="M55.1067 28.8613L57.6878 28.8721C57.4189 30.1626 57.1952 31.479 56.793 32.7438H54.2334C54.4743 31.4403 54.7324 30.1368 55.1067 28.8613Z" fill="#4281E3"></path><path d="M25.7879 29.8529C25.8008 31.2381 25.7599 32.6254 25.8373 34.0085C25.9199 35.828 26.6499 37.5582 27.8958 38.8868C27.1774 38.8868 26.459 38.8868 25.7448 38.8868C25.4437 38.8868 25.1512 38.8868 25.0071 39.2245C24.4326 38.5081 24.0143 37.6794 23.7789 36.7918C23.6283 36.2949 23.424 36.1465 22.9078 36.1078C21.6531 36.0423 20.4673 35.5139 19.5797 34.6247C18.6921 33.7355 18.1658 32.5488 18.1025 31.294H20.6277C20.888 32.3437 21.4494 33.1158 22.5335 33.4449C23.0282 33.5998 23.2605 33.5611 23.2368 32.9438C23.2003 31.9092 23.2368 30.8703 23.2519 29.8335L25.7879 29.8529Z" fill="#4B7AE5"></path><path d="M32.4638 51.4395C31.5819 51.5406 30.6721 51.2675 29.8095 51.6288C28.757 49.3646 27.7059 47.1011 26.6562 44.8383L29.4181 44.8232C29.5493 45.0706 29.6998 45.3094 29.8052 45.5675C29.9687 45.9611 30.13 45.7438 30.3021 45.589C30.4462 45.9632 30.7624 45.974 31.0915 45.9697C31.7024 45.9697 32.3111 45.9697 32.9219 45.9697C32.8768 46.3633 32.6058 46.6279 32.3971 46.9355C31.6507 48.0238 30.9732 49.1144 32.0293 50.4178C32.253 50.6932 32.324 51.0954 32.4638 51.4395Z" fill="#6664ED"></path><path d="M25.7881 29.8529H23.2607C23.2354 29.5669 23.2289 29.2795 23.2414 28.9926C23.2952 28.4763 23.0994 28.3193 22.6133 28.4742C22.4649 28.5237 22.31 28.5559 22.1573 28.5947C21.0259 28.2096 19.858 28.4957 18.7158 28.414C17.8124 28.3559 16.6294 28.799 16.0659 28.2656C15.2055 27.4546 14.8355 26.1705 14.3623 25.0391C14.614 24.7488 14.9538 24.8972 15.2549 24.8671C15.8249 24.809 16.4186 24.994 16.9628 24.6971C17.1327 24.9983 17.3005 25.3016 17.4704 25.6005C17.664 25.9382 17.9974 25.8737 18.2598 25.7963C18.5222 25.7188 18.3695 25.4371 18.348 25.2456C18.2899 24.7423 18.2168 24.239 18.148 23.74H20.6624C20.7205 24.0261 20.785 24.31 20.8345 24.6004C21.1034 26.0953 21.1012 26.0931 22.5552 25.878C22.7682 25.8409 22.9849 25.8301 23.2005 25.8457C23.6135 25.8888 23.8006 25.7102 23.9663 25.3338C24.6204 23.7997 25.7897 22.5422 27.2723 21.7783C27.3002 22.0838 27.4486 22.2945 27.7713 22.2816C29.0877 22.2279 30.4212 22.4666 31.7247 22.1053C32.2495 22.4731 32.7593 22.8645 33.3013 23.2022C35.648 24.6735 38.1625 25.6608 40.963 25.8092C42.5117 25.8909 44.0862 25.6887 45.5983 26.1942C45.9618 26.3168 45.908 25.9791 45.9532 25.8457C46.2629 25.0133 46.3662 24.125 46.4909 23.2646H49.0097C48.9819 24.7004 48.6674 26.1162 48.0848 27.4288C47.6951 27.3494 47.3006 27.2963 46.9039 27.2697C44.1235 27.2539 41.3423 27.2539 38.5604 27.2697C38.0463 27.2697 37.5021 27.2697 37.0741 27.6633C34.4155 27.018 32.1011 25.7124 30.0255 23.9701C29.5953 23.598 29.2683 23.5658 28.765 23.8346C26.8292 24.8649 25.8419 26.4459 25.8161 28.6355C25.8075 29.0377 25.7967 29.44 25.7881 29.8529Z" fill="#3C87E1"></path><path d="M19.1846 17.7174C20.8236 13.979 23.6822 11.6947 27.5926 10.6687C28.5817 10.4127 29.6021 10.2983 30.6233 10.3289C33.2216 10.4042 35.8501 10.0428 38.4183 10.4988C42.5201 11.228 45.7552 13.295 47.648 17.1538C47.7405 17.3431 47.9341 17.4829 47.9233 17.7217C47.0436 18.1347 46.1144 17.8056 45.2153 17.9045C43.0299 14.4028 39.8702 12.7702 35.7511 12.8993C33.9529 12.9573 32.1526 12.91 30.3501 12.91C29.3285 12.9173 28.3149 13.0917 27.3495 13.4262C24.8932 14.2522 23.1079 15.8805 21.7808 18.0658C21.3785 17.7518 20.9204 17.9798 20.4751 17.9067C20.0299 17.8335 19.5717 18.0852 19.1846 17.7174Z" fill="#229ED9"></path><path d="M37.0693 27.6634C37.4995 27.2762 38.0416 27.274 38.5556 27.2697C41.3375 27.2525 44.1187 27.2525 46.8991 27.2697C47.2959 27.2963 47.6904 27.3495 48.08 27.4289C47.9639 27.8591 48.1639 28.2076 48.3532 28.5539C48.65 29.0916 48.9726 29.6508 48.9705 30.2596C48.9705 30.9715 49.334 31.021 49.8653 30.9758C50.104 30.9543 50.345 30.9758 50.5859 30.9758C52.6572 30.9758 52.6572 30.9758 53.2724 33.0558C50.6913 33.3139 48.0929 33.4042 45.5096 32.9977C47.325 31.3178 46.2926 28.8937 44.4342 28.4528C44.0276 28.356 43.8491 28.4226 43.8599 28.8829C43.8814 29.7928 43.8599 30.7026 43.8427 31.6125H41.3217C41.3217 30.7328 41.283 29.8509 41.3024 28.9733C41.3024 28.5539 41.2142 28.3796 40.7496 28.328C39.5064 28.2162 38.2567 28.1 37.0693 27.6634Z" fill="#4281E3"></path><path d="M16.9561 24.6756C16.412 24.9725 15.8183 24.7875 15.2483 24.8456C14.9472 24.8757 14.603 24.7273 14.3557 25.0176C14.1664 24.7015 13.9792 24.3853 13.691 23.9056C13.5663 24.6477 13.4759 25.2284 13.3748 25.8092H10.8389C11.2691 22.2788 11.6914 18.7498 12.1058 15.2222L12.2671 15.1577C13.8315 18.3296 15.3946 21.5023 16.9561 24.6756Z" fill="#3391DE"></path><path d="M10.8388 25.8091H13.3747C13.1725 27.8073 12.9617 29.8034 12.6068 31.7822H10.0859C10.3354 29.7905 10.5864 27.7994 10.8388 25.8091Z" fill="#4281E3"></path><path d="M19.1846 17.7173C19.5718 18.0851 20.045 17.8356 20.4752 17.9066C20.9054 17.9776 21.3786 17.7517 21.7808 18.0657C20.928 19.821 20.5406 21.766 20.6558 23.7141H18.1414C17.9076 21.6565 18.2697 19.5751 19.1846 17.7173Z" fill="#3391DE"></path><path d="M61.2439 17.5925C60.0445 17.8507 58.8039 17.8507 57.6045 17.5925C58.125 15.1749 58.6448 12.7565 59.1639 10.3374L59.3016 10.3589L61.2439 17.5925Z" fill="#229ED9"></path><path d="M45.2148 17.9045C46.1139 17.8056 47.0432 18.1347 47.9229 17.7217C48.5402 18.9671 48.9812 20.2619 48.865 21.6751C48.822 22.2085 49.1769 22.6947 48.9919 23.2303H46.4732C46.5142 21.3768 46.0811 19.5436 45.2148 17.9045Z" fill="#3391DE"></path><path d="M7.9541 37.2588H11.9312L11.0214 45.056L10.845 45.071L7.9541 37.2588Z" fill="#596EE9"></path><path d="M18.7086 28.3946C19.8572 28.4764 21.0252 28.1795 22.1501 28.5753C21.1263 29.1926 20.5778 30.081 20.6294 31.2941H18.1107C17.9321 30.2487 18.401 29.3389 18.7086 28.3946Z" fill="#4281E3"></path><path d="M33.5358 38.7236C31.4988 38.6397 29.8921 37.7535 28.8037 35.951C28.5886 35.581 28.5499 35.3358 29.0188 35.1702C29.2724 35.083 29.5138 34.9637 29.7372 34.8153C30.4191 34.3443 30.8471 34.3184 31.4365 35.1272C32.5313 36.6329 34.8586 36.4479 35.9083 34.8669C36.2438 34.3572 36.5041 34.2819 36.9708 34.6088C37.178 34.7335 37.3936 34.8435 37.6161 34.9379C38.7023 35.4821 38.7023 35.4821 37.9925 36.4436C36.8998 37.9213 35.4071 38.6461 33.5358 38.7236Z" fill="#4B7AE5"></path><path d="M29.692 32.2554C29.4355 32.2579 29.1841 32.184 28.9698 32.0429C28.7555 31.9019 28.5881 31.7003 28.4889 31.4637C28.3898 31.2271 28.3634 30.9663 28.4132 30.7146C28.4629 30.463 28.5865 30.2319 28.7682 30.0508C28.9499 29.8697 29.1814 29.7469 29.4333 29.698C29.6851 29.6491 29.9458 29.6763 30.182 29.7763C30.4183 29.8762 30.6194 30.0443 30.7597 30.2591C30.9 30.4738 30.9731 30.7255 30.9697 30.982C30.9652 31.3191 30.829 31.641 30.5903 31.879C30.3515 32.1169 30.0291 32.252 29.692 32.2554Z" fill="#4B7AE5"></path><path d="M37.4476 32.2556C37.1912 32.2616 36.9388 32.191 36.7226 32.0529C36.5065 31.9148 36.3364 31.7153 36.2341 31.4801C36.1317 31.2449 36.1018 30.9845 36.1482 30.7322C36.1945 30.4799 36.315 30.2471 36.4942 30.0636C36.6735 29.8801 36.9033 29.7542 37.1545 29.7019C37.4056 29.6496 37.6666 29.6734 37.9042 29.7701C38.1418 29.8668 38.3451 30.0322 38.4883 30.245C38.6315 30.4578 38.708 30.7085 38.7081 30.965C38.7082 31.3021 38.5764 31.6259 38.3408 31.8671C38.1052 32.1083 37.7847 32.2477 37.4476 32.2556Z" fill="#4B7AE5"></path><path d="M27.2549 21.7502C28.3304 21.4017 28.4745 20.6102 28.4164 19.5992C28.3282 18.0785 28.3949 18.1194 29.9436 18.057C30.7502 18.0226 31.1158 18.2119 30.9868 19.0787C30.9201 19.524 31.0126 19.9907 30.9653 20.4403C30.8943 21.1458 31.0233 21.7308 31.7073 22.0836C30.4039 22.4449 29.0703 22.2062 27.7539 22.26C27.4356 22.2664 27.2828 22.0556 27.2549 21.7502Z" fill="#3391DE"></path></g><defs><clipPath id="clip0_1756_547"><rect width="80" height="80.3162" fill="white"></rect></clipPath></defs></svg> 